%FSLAX24Y24*%
%MOIN*%
G70*
G01*
G75*
G04 Layer_Color=255*
%ADD10R,0.0236X0.0433*%
%ADD11R,0.0925X0.0197*%
%ADD12R,0.0984X0.0925*%
%ADD13R,0.0709X0.0472*%
%ADD14R,0.0610X0.0236*%
%ADD15O,0.0610X0.0236*%
%ADD16R,0.1102X0.1102*%
%ADD17O,0.0256X0.0098*%
%ADD18O,0.0098X0.0256*%
%ADD19R,0.0354X0.0252*%
%ADD20R,0.0354X0.0161*%
%ADD21O,0.0236X0.0610*%
%ADD22R,0.0236X0.0610*%
%ADD23R,0.0472X0.0709*%
%ADD24O,0.0276X0.0118*%
%ADD25R,0.0748X0.0354*%
%ADD26O,0.0827X0.0177*%
%ADD27R,0.0571X0.0217*%
%ADD28R,0.0571X0.0217*%
%ADD29R,0.0630X0.0276*%
%ADD30R,0.0374X0.0512*%
%ADD31R,0.0354X0.0276*%
%ADD32R,0.0276X0.0354*%
G04:AMPARAMS|DCode=33|XSize=35.4mil|YSize=27.6mil|CornerRadius=0mil|HoleSize=0mil|Usage=FLASHONLY|Rotation=225.000|XOffset=0mil|YOffset=0mil|HoleType=Round|Shape=Rectangle|*
%AMROTATEDRECTD33*
4,1,4,0.0028,0.0223,0.0223,0.0028,-0.0028,-0.0223,-0.0223,-0.0028,0.0028,0.0223,0.0*
%
%ADD33ROTATEDRECTD33*%

%ADD34R,0.0551X0.0433*%
%ADD35R,0.0453X0.0236*%
%ADD36R,0.0335X0.0315*%
%ADD37C,0.0250*%
%ADD38C,0.0100*%
%ADD39C,0.0200*%
%ADD40C,0.0150*%
%ADD41C,0.0300*%
%ADD42R,0.0500X0.0500*%
%ADD43C,0.0500*%
%ADD44R,0.0787X0.0315*%
%ADD45R,0.0394X0.0394*%
%ADD46C,0.0394*%
%ADD47C,0.0240*%
%ADD48C,0.0260*%
%ADD49C,0.0300*%
%ADD50O,0.0236X0.0866*%
%ADD51R,0.0886X0.0768*%
%ADD52R,0.0886X0.1004*%
%ADD53R,0.0906X0.0906*%
%ADD54R,0.0827X0.0906*%
D27*
X29877Y34276D02*
D03*
D28*
X29877Y34650D02*
D03*
Y35024D02*
D03*
X30723D02*
D03*
Y34276D02*
D03*
D31*
X29050Y34255D02*
D03*
Y34845D02*
D03*
X36450Y34145D02*
D03*
Y33555D02*
D03*
X39350Y35255D02*
D03*
Y35845D02*
D03*
D32*
X37205Y35550D02*
D03*
X37795D02*
D03*
X38895D02*
D03*
X38305D02*
D03*
D34*
X40000Y29595D02*
D03*
Y29005D02*
D03*
D36*
X36450Y35126D02*
D03*
Y34574D02*
D03*
D42*
X32156Y35650D02*
D03*
D43*
X32944D02*
D03*
D44*
X27278Y28543D02*
D03*
Y30000D02*
D03*
Y31496D02*
D03*
D45*
X36050Y28900D02*
D03*
D46*
X35550D02*
D03*
D50*
X38600Y32855D02*
D03*
X38100D02*
D03*
X37600D02*
D03*
X37100D02*
D03*
X38600Y34745D02*
D03*
X38100D02*
D03*
X37600D02*
D03*
X37100D02*
D03*
D51*
X40350Y31891D02*
D03*
Y30809D02*
D03*
D52*
X35350Y32815D02*
D03*
Y34685D02*
D03*
D53*
X41750Y31536D02*
D03*
Y29764D02*
D03*
D54*
X37344Y28400D02*
D03*
X39156D02*
D03*
Y31000D02*
D03*
X37344D02*
D03*
M02*
