%FSLAX24Y24*%
%MOIN*%
G70*
G01*
G75*
G04 Layer_Physical_Order=1*
G04 Layer_Color=255*
%ADD10R,0.0236X0.0433*%
%ADD11R,0.0925X0.0197*%
%ADD12R,0.0984X0.0925*%
%ADD13R,0.0709X0.0472*%
%ADD14R,0.0610X0.0236*%
%ADD15O,0.0610X0.0236*%
%ADD16R,0.1102X0.1102*%
%ADD17O,0.0256X0.0098*%
%ADD18O,0.0098X0.0256*%
%ADD19R,0.0354X0.0252*%
%ADD20R,0.0354X0.0161*%
%ADD21O,0.0236X0.0610*%
%ADD22R,0.0236X0.0610*%
%ADD23R,0.0472X0.0709*%
%ADD24O,0.0276X0.0118*%
%ADD25R,0.0748X0.0354*%
%ADD26O,0.0827X0.0177*%
%ADD27R,0.0571X0.0217*%
%ADD28R,0.0571X0.0217*%
%ADD29R,0.0630X0.0276*%
%ADD30R,0.0374X0.0512*%
%ADD31R,0.0354X0.0276*%
%ADD32R,0.0276X0.0354*%
G04:AMPARAMS|DCode=33|XSize=35.4mil|YSize=27.6mil|CornerRadius=0mil|HoleSize=0mil|Usage=FLASHONLY|Rotation=225.000|XOffset=0mil|YOffset=0mil|HoleType=Round|Shape=Rectangle|*
%AMROTATEDRECTD33*
4,1,4,0.0028,0.0223,0.0223,0.0028,-0.0028,-0.0223,-0.0223,-0.0028,0.0028,0.0223,0.0*
%
%ADD33ROTATEDRECTD33*%

%ADD34R,0.0551X0.0433*%
%ADD35R,0.0453X0.0236*%
%ADD36R,0.0335X0.0315*%
%ADD37C,0.0250*%
%ADD38C,0.0100*%
%ADD39C,0.0200*%
%ADD40C,0.0150*%
%ADD41C,0.0300*%
%ADD42R,0.0500X0.0500*%
%ADD43C,0.0500*%
%ADD44R,0.0787X0.0315*%
%ADD45R,0.0394X0.0394*%
%ADD46C,0.0394*%
%ADD47C,0.0240*%
%ADD48C,0.0260*%
%ADD49C,0.0300*%
G36*
X43561Y35405D02*
X43561D01*
X43560D01*
X43526Y35405D01*
X43526Y35405D01*
Y35405D01*
X43195D01*
Y35109D01*
Y34812D01*
X43526D01*
X43526Y34812D01*
Y34812D01*
X43560Y34812D01*
X43561Y34811D01*
Y33997D01*
X43205D01*
Y33701D01*
Y33405D01*
X43561D01*
Y32742D01*
X43235D01*
Y32446D01*
Y32149D01*
X43561D01*
Y30931D01*
X43244D01*
Y30634D01*
Y30338D01*
X43561D01*
Y29805D01*
X43561D01*
X43560D01*
X43526Y29805D01*
X43526Y29805D01*
Y29805D01*
X43195D01*
Y29509D01*
Y29212D01*
X43526D01*
X43526Y29212D01*
Y29212D01*
X43560Y29212D01*
X43561Y29211D01*
Y28397D01*
X43205D01*
Y28101D01*
Y27805D01*
X43561D01*
Y26730D01*
X42996D01*
X42989Y26820D01*
X42942Y27018D01*
X42864Y27205D01*
X42758Y27379D01*
X42626Y27533D01*
X42471Y27665D01*
X42298Y27771D01*
X42110Y27849D01*
X41913Y27897D01*
X41710Y27913D01*
X41507Y27897D01*
X41310Y27849D01*
X41122Y27771D01*
X40949Y27665D01*
X40794Y27533D01*
X40662Y27379D01*
X40556Y27205D01*
X40478Y27018D01*
X40455Y26919D01*
X40405Y26925D01*
Y27055D01*
X39812D01*
Y26730D01*
X38997D01*
Y27045D01*
X38405D01*
Y26730D01*
X35742D01*
X35718Y26774D01*
X35748Y26818D01*
X35754Y26850D01*
X35346D01*
X35352Y26818D01*
X35382Y26774D01*
X35358Y26730D01*
X27246D01*
X27239Y26820D01*
X27192Y27018D01*
X27114Y27205D01*
X27008Y27379D01*
X26876Y27533D01*
X26721Y27665D01*
X26548Y27771D01*
X26360Y27849D01*
X26163Y27897D01*
X25960Y27913D01*
X25757Y27897D01*
X25560Y27849D01*
X25372Y27771D01*
X25199Y27665D01*
X25044Y27533D01*
X24912Y27379D01*
X24806Y27205D01*
X24728Y27018D01*
X24681Y26820D01*
X24674Y26730D01*
X24100D01*
Y30275D01*
X25001D01*
X25023Y30230D01*
X24999Y30199D01*
X24963Y30112D01*
X24951Y30020D01*
X24963Y29927D01*
X24999Y29841D01*
X25056Y29766D01*
X25130Y29709D01*
X25217Y29674D01*
X25309Y29661D01*
X25389Y29672D01*
X25414Y29646D01*
X25422Y29626D01*
X25416Y29600D01*
X25430Y29530D01*
X25470Y29470D01*
X25488Y29458D01*
Y29393D01*
X25263D01*
D01*
D01*
X25263Y29393D01*
X25237D01*
Y29393D01*
X24763D01*
Y28997D01*
X25237D01*
Y28997D01*
X25237D01*
X25237Y28997D01*
X25263D01*
Y28997D01*
X25727D01*
X25727Y28997D01*
Y28997D01*
X25737Y28997D01*
X25750D01*
X25763Y28997D01*
X25773Y28997D01*
X25773Y28997D01*
Y28997D01*
X26005D01*
X26007Y28996D01*
X26050Y28988D01*
X26093Y28996D01*
X26095Y28997D01*
X26227D01*
X26227Y28997D01*
Y28997D01*
X26237Y28997D01*
X26250D01*
X26263D01*
X26273Y28997D01*
X26273Y28997D01*
Y28997D01*
X26498D01*
X26500Y28997D01*
X26502Y28997D01*
X26737D01*
Y29393D01*
X26638D01*
Y29482D01*
X26670Y29530D01*
X26684Y29600D01*
X26670Y29670D01*
X26630Y29730D01*
X26570Y29770D01*
X26500Y29784D01*
X26430Y29770D01*
X26370Y29730D01*
X26330Y29670D01*
X26316Y29600D01*
X26330Y29530D01*
X26362Y29482D01*
Y29393D01*
X26273D01*
X26273Y29393D01*
Y29393D01*
X26263Y29393D01*
X26250D01*
X26237D01*
X26227Y29393D01*
X26227Y29393D01*
Y29393D01*
X26162D01*
Y29458D01*
X26180Y29470D01*
X26220Y29530D01*
X26234Y29600D01*
X26220Y29670D01*
X26180Y29730D01*
X26120Y29770D01*
X26050Y29784D01*
X25980Y29770D01*
X25920Y29730D01*
X25880Y29670D01*
X25866Y29600D01*
X25880Y29530D01*
X25920Y29470D01*
X25938Y29458D01*
Y29393D01*
X25773D01*
X25773Y29393D01*
Y29393D01*
X25763Y29393D01*
X25750D01*
X25737Y29393D01*
X25737D01*
X25727D01*
X25727D01*
D01*
X25712Y29393D01*
Y29458D01*
X25730Y29470D01*
X25770Y29530D01*
X25784Y29600D01*
X25770Y29670D01*
X25730Y29730D01*
X25670Y29770D01*
X25626Y29778D01*
X25608Y29825D01*
X25620Y29841D01*
X25656Y29927D01*
X25668Y30020D01*
X25656Y30112D01*
X25620Y30199D01*
X25563Y30273D01*
X25489Y30330D01*
X25402Y30366D01*
X25309Y30378D01*
X25217Y30366D01*
X25209Y30363D01*
X25167Y30390D01*
Y31320D01*
X24100D01*
Y33631D01*
X25167D01*
Y34676D01*
X24100D01*
Y36348D01*
X24674D01*
X24681Y36257D01*
X24728Y36060D01*
X24806Y35872D01*
X24912Y35699D01*
X25044Y35544D01*
X25199Y35412D01*
X25372Y35306D01*
X25560Y35228D01*
X25757Y35181D01*
X25960Y35165D01*
X26163Y35181D01*
X26360Y35228D01*
X26548Y35306D01*
X26721Y35412D01*
X26876Y35544D01*
X27008Y35699D01*
X27114Y35872D01*
X27192Y36060D01*
X27239Y36257D01*
X27246Y36348D01*
X36568D01*
X36599Y36301D01*
X36552Y36232D01*
X36536Y36150D01*
X36534Y36148D01*
X35793D01*
Y35914D01*
X35586D01*
Y35922D01*
X34914D01*
D01*
D01*
X34914Y35922D01*
X34886D01*
Y35922D01*
X34214D01*
Y35864D01*
X33170D01*
X33165Y35871D01*
X33100Y35921D01*
X33025Y35952D01*
X32944Y35963D01*
X32863Y35952D01*
X32787Y35921D01*
X32723Y35871D01*
X32673Y35806D01*
X32642Y35731D01*
X32631Y35650D01*
X32642Y35569D01*
X32673Y35494D01*
X32723Y35429D01*
X32787Y35379D01*
X32863Y35348D01*
X32944Y35337D01*
X33025Y35348D01*
X33100Y35379D01*
X33165Y35429D01*
X33170Y35436D01*
X34214D01*
Y35369D01*
X34214Y35369D01*
X34214Y35331D01*
X34214D01*
Y35105D01*
X34550D01*
Y35055D01*
X34600D01*
Y34778D01*
X34879D01*
X34879Y34778D01*
Y34778D01*
X34886Y34778D01*
X34900D01*
X34914D01*
X34921Y34778D01*
X34921Y34778D01*
Y34778D01*
X35200D01*
Y35055D01*
X35250D01*
Y35105D01*
X35586D01*
Y35331D01*
D01*
Y35331D01*
X35586Y35331D01*
Y35369D01*
X35586D01*
Y35486D01*
X35793D01*
Y35252D01*
X36543D01*
Y35648D01*
X36364D01*
Y35700D01*
Y35752D01*
X36543D01*
Y35996D01*
X36591Y36010D01*
X36599Y35999D01*
X36668Y35952D01*
X36684Y35949D01*
X37111Y35522D01*
Y33792D01*
X36931D01*
Y33456D01*
D01*
D01*
X36931Y33456D01*
X36931Y33418D01*
X36931D01*
Y33300D01*
X37277D01*
Y33200D01*
X36931D01*
Y33082D01*
X36931Y33082D01*
X36931Y33044D01*
X36931D01*
Y32708D01*
X37622D01*
Y32792D01*
X37643Y32796D01*
X37679Y32821D01*
X37732Y32873D01*
X37778Y32854D01*
Y32708D01*
X38248D01*
X39010Y31945D01*
X38996Y31897D01*
X38946Y31887D01*
X38700D01*
Y31650D01*
Y31413D01*
X39013D01*
X39044Y31374D01*
X39040Y31355D01*
X39050Y31308D01*
X39076Y31269D01*
X39115Y31243D01*
X39162Y31233D01*
X39319D01*
X39366Y31243D01*
X39405Y31269D01*
X39431Y31308D01*
X39441Y31355D01*
X39431Y31401D01*
X39405Y31441D01*
Y31466D01*
X39429Y31502D01*
X39241D01*
Y31602D01*
X39437D01*
X39491Y31638D01*
X39504D01*
X39588Y31554D01*
X39587Y31550D01*
X39599Y31488D01*
X39635Y31435D01*
X39688Y31399D01*
X39750Y31387D01*
X40022D01*
X40044Y31372D01*
X40064Y31368D01*
Y31318D01*
X40044Y31314D01*
X39985Y31275D01*
X39946Y31216D01*
X39942Y31196D01*
X40659D01*
X40655Y31216D01*
X40616Y31275D01*
X40557Y31314D01*
X40536Y31318D01*
Y31368D01*
X40557Y31372D01*
X40579Y31387D01*
X41922D01*
X41944Y31372D01*
X41964Y31368D01*
Y31318D01*
X41944Y31314D01*
X41885Y31275D01*
X41846Y31216D01*
X41842Y31196D01*
X42559D01*
X42555Y31216D01*
X42516Y31275D01*
X42457Y31314D01*
X42436Y31318D01*
Y31368D01*
X42457Y31372D01*
X42479Y31387D01*
X42550D01*
X42612Y31399D01*
X42665Y31435D01*
X42665Y31435D01*
X42665Y31435D01*
X42865Y31635D01*
X42901Y31688D01*
X42913Y31750D01*
X42913Y31750D01*
X42913Y31750D01*
Y31750D01*
Y32050D01*
X42901Y32111D01*
X42933Y32149D01*
X43135D01*
Y32396D01*
X42770D01*
Y32326D01*
X42724Y32307D01*
X42465Y32565D01*
X42412Y32601D01*
X42350Y32613D01*
X41699D01*
Y32742D01*
X40870D01*
Y32613D01*
X39818D01*
X38691Y33739D01*
X38638Y33775D01*
X38576Y33787D01*
X38469D01*
Y33792D01*
X37812D01*
Y34854D01*
X38011Y35052D01*
X38057Y35033D01*
Y34752D01*
X38807D01*
Y34761D01*
X38850D01*
X38891Y34770D01*
X38919Y34728D01*
X38880Y34670D01*
X38876Y34650D01*
X39000D01*
Y34794D01*
X38986Y34820D01*
X39299Y35132D01*
X39315Y35157D01*
X39487D01*
Y35157D01*
X39487D01*
X39487Y35157D01*
X39523D01*
Y35157D01*
X39700D01*
Y35374D01*
Y35592D01*
X39523D01*
Y35553D01*
X39487D01*
Y35553D01*
X39013D01*
Y35380D01*
X38781Y35148D01*
X38172D01*
X38153Y35194D01*
X38211Y35252D01*
X38807D01*
Y35648D01*
X38057D01*
Y35416D01*
X37621Y34979D01*
X37596Y34943D01*
X37588Y34900D01*
X37588Y34900D01*
Y33792D01*
X37489D01*
Y35522D01*
X37728Y35761D01*
X38057D01*
Y35752D01*
X38807D01*
Y35761D01*
X39013D01*
Y35747D01*
X39487D01*
Y35747D01*
X39487D01*
X39523Y35712D01*
Y35708D01*
X39977D01*
Y35893D01*
X39989Y35950D01*
X39977Y36007D01*
Y36143D01*
X39523D01*
D01*
D01*
X39523Y36143D01*
X39487D01*
Y36143D01*
X39013D01*
Y36139D01*
X38807D01*
Y36148D01*
X38057D01*
Y36139D01*
X37650D01*
X37578Y36124D01*
X37517Y36083D01*
X37300Y35867D01*
X36951Y36216D01*
X36948Y36232D01*
X36901Y36301D01*
X36932Y36348D01*
X40424D01*
X40431Y36257D01*
X40478Y36060D01*
X40556Y35872D01*
X40662Y35699D01*
X40794Y35544D01*
X40949Y35412D01*
X41122Y35306D01*
X41310Y35228D01*
X41507Y35181D01*
X41710Y35165D01*
X41913Y35181D01*
X42110Y35228D01*
X42298Y35306D01*
X42471Y35412D01*
X42626Y35544D01*
X42758Y35699D01*
X42864Y35872D01*
X42942Y36060D01*
X42989Y36257D01*
X42996Y36348D01*
X43561D01*
Y35405D01*
D02*
G37*
%LPC*%
G36*
X35505Y29987D02*
X35357D01*
Y29800D01*
X35505D01*
Y29987D01*
D02*
G37*
G36*
X27228Y29950D02*
X26824D01*
Y29783D01*
X27228D01*
Y29950D01*
D02*
G37*
G36*
X43095Y29805D02*
X42731D01*
Y29559D01*
X43095D01*
Y29805D01*
D02*
G37*
G36*
X41244Y30584D02*
X40880D01*
Y30338D01*
X41244D01*
Y30584D01*
D02*
G37*
G36*
X41709D02*
X41344D01*
Y30338D01*
X41709D01*
Y30584D01*
D02*
G37*
G36*
X35753Y29987D02*
X35605D01*
Y29800D01*
X35753D01*
Y29987D01*
D02*
G37*
G36*
X27228Y30217D02*
X26824D01*
Y30050D01*
X27228D01*
Y30217D01*
D02*
G37*
G36*
X33950Y29005D02*
X33763D01*
Y28857D01*
X33950D01*
Y29005D01*
D02*
G37*
G36*
X35500Y28850D02*
X35298D01*
X35300Y28833D01*
X35326Y28770D01*
X35367Y28717D01*
X35420Y28676D01*
X35483Y28650D01*
X35500Y28648D01*
Y28850D01*
D02*
G37*
G36*
X32039Y28599D02*
Y28599D01*
X32022Y28599D01*
X32013D01*
X32004D01*
X31987Y28599D01*
X31987Y28599D01*
Y28599D01*
X31648D01*
Y28513D01*
X31443D01*
Y28587D01*
X31047D01*
Y28113D01*
X31443D01*
Y28187D01*
X31648D01*
Y28046D01*
X31987D01*
X31987Y28046D01*
Y28046D01*
X32004Y28046D01*
X32013D01*
X32022D01*
X32039Y28046D01*
X32039Y28046D01*
Y28046D01*
X32150D01*
Y28322D01*
Y28599D01*
X32039D01*
X32039Y28599D01*
D02*
G37*
G36*
X35500Y29152D02*
X35483Y29150D01*
X35420Y29124D01*
X35367Y29083D01*
X35326Y29030D01*
X35300Y28967D01*
X35298Y28950D01*
X35500D01*
Y29152D01*
D02*
G37*
G36*
X35753Y29700D02*
X35605D01*
Y29513D01*
X35753D01*
Y29700D01*
D02*
G37*
G36*
X43095Y29459D02*
X42731D01*
Y29212D01*
X43095D01*
Y29459D01*
D02*
G37*
G36*
X33950Y29253D02*
X33763D01*
Y29105D01*
X33950D01*
Y29253D01*
D02*
G37*
G36*
X43144Y30584D02*
X42780D01*
Y30338D01*
X43144D01*
Y30584D01*
D02*
G37*
G36*
X40250Y31096D02*
X39942D01*
X39946Y31077D01*
X39985Y31018D01*
X40044Y30979D01*
X40113Y30965D01*
X40250D01*
Y31096D01*
D02*
G37*
G36*
X32077Y30943D02*
X31900D01*
Y30776D01*
X32077D01*
Y30943D01*
D02*
G37*
G36*
X31800D02*
X31623D01*
Y30776D01*
X31800D01*
Y30943D01*
D02*
G37*
G36*
X40659Y31096D02*
X40350D01*
Y30965D01*
X40487D01*
X40557Y30979D01*
X40616Y31018D01*
X40655Y31077D01*
X40659Y31096D01*
D02*
G37*
G36*
X38009Y31305D02*
X37871D01*
X37895Y31269D01*
X37934Y31243D01*
X37981Y31233D01*
X38009D01*
Y31305D01*
D02*
G37*
G36*
X42559Y31096D02*
X42250D01*
Y30965D01*
X42387D01*
X42457Y30979D01*
X42516Y31018D01*
X42555Y31077D01*
X42559Y31096D01*
D02*
G37*
G36*
X42150D02*
X41842D01*
X41846Y31077D01*
X41885Y31018D01*
X41944Y30979D01*
X42013Y30965D01*
X42150D01*
Y31096D01*
D02*
G37*
G36*
X32077Y30676D02*
X31900D01*
Y30508D01*
X32077D01*
Y30676D01*
D02*
G37*
G36*
X31800D02*
X31623D01*
Y30508D01*
X31800D01*
Y30676D01*
D02*
G37*
G36*
X31425Y30822D02*
X30492D01*
X30494Y30814D01*
X30526Y30765D01*
Y30723D01*
X30494Y30674D01*
X30482Y30616D01*
X30494Y30558D01*
X30521Y30516D01*
X30498Y30472D01*
X30360D01*
X30360Y30472D01*
X30317Y30464D01*
X30281Y30440D01*
X30281Y30440D01*
X28971Y29129D01*
X28946Y29093D01*
X28938Y29050D01*
X28938Y29050D01*
Y27670D01*
X28931Y27666D01*
X28892Y27607D01*
X28892D01*
X28844Y27621D01*
Y27716D01*
X28716D01*
Y27350D01*
Y26985D01*
X28844D01*
Y27079D01*
X28892Y27094D01*
X28892D01*
X28931Y27035D01*
X28990Y26996D01*
X29060Y26982D01*
X29129Y26996D01*
X29188Y27035D01*
X29228Y27094D01*
X29232Y27114D01*
X29282D01*
X29286Y27094D01*
X29325Y27035D01*
X29384Y26996D01*
X29454Y26982D01*
X29523Y26996D01*
X29582Y27035D01*
X29621Y27094D01*
X29635Y27163D01*
Y27537D01*
X29621Y27607D01*
X29582Y27666D01*
X29562Y27679D01*
Y29004D01*
X29783Y29224D01*
X30534D01*
X30575Y29197D01*
X30633Y29185D01*
X31283D01*
X31341Y29197D01*
X31390Y29229D01*
X31423Y29279D01*
X31435Y29337D01*
X31423Y29395D01*
X31390Y29444D01*
Y29485D01*
X31423Y29535D01*
X31435Y29593D01*
X31423Y29650D01*
X31390Y29700D01*
Y29741D01*
X31423Y29790D01*
X31435Y29848D01*
X31423Y29906D01*
X31412Y29923D01*
X31436Y29967D01*
X31623D01*
Y29957D01*
X32077D01*
Y30392D01*
X31623D01*
Y30242D01*
X31436D01*
X31412Y30286D01*
X31423Y30302D01*
X31435Y30360D01*
X31423Y30418D01*
X31390Y30467D01*
Y30509D01*
X31423Y30558D01*
X31435Y30616D01*
X31423Y30674D01*
X31390Y30723D01*
Y30765D01*
X31423Y30814D01*
X31425Y30822D01*
D02*
G37*
G36*
X37537Y30849D02*
X37212Y30524D01*
X37212Y30524D01*
Y30524D01*
X37201Y30513D01*
X37194Y30506D01*
X37187Y30499D01*
X37176Y30488D01*
X37176D01*
X37176Y30488D01*
X36862Y30174D01*
X36862Y30174D01*
Y30174D01*
X36851Y30163D01*
X36844Y30156D01*
X36837Y30149D01*
X36826Y30138D01*
X36826D01*
X36826Y30138D01*
X36501Y29813D01*
X36638Y29677D01*
Y29593D01*
X36513D01*
Y29197D01*
X36977D01*
X36977Y29197D01*
Y29197D01*
X36987Y29197D01*
X37000D01*
X37013D01*
X37023Y29197D01*
X37023Y29197D01*
Y29197D01*
X37477D01*
X37477Y29197D01*
Y29197D01*
X37487Y29197D01*
X37500D01*
X37513D01*
X37523Y29197D01*
X37523Y29197D01*
Y29197D01*
X37987D01*
Y29593D01*
X37912D01*
Y30250D01*
X37912Y30250D01*
X37904Y30293D01*
X37879Y30329D01*
X37728Y30481D01*
X37816Y30569D01*
X37537Y30849D01*
D02*
G37*
G36*
X43144Y30931D02*
X42780D01*
Y30684D01*
X43144D01*
Y30931D01*
D02*
G37*
G36*
X41709D02*
X41344D01*
Y30684D01*
X41709D01*
Y30931D01*
D02*
G37*
G36*
X41244D02*
X40880D01*
Y30684D01*
X41244D01*
Y30931D01*
D02*
G37*
G36*
X30853Y28587D02*
X30457D01*
Y28113D01*
X30492D01*
Y27991D01*
X30452Y27932D01*
X30436Y27850D01*
X30452Y27768D01*
X30499Y27699D01*
X30568Y27652D01*
X30650Y27636D01*
X30732Y27652D01*
X30801Y27699D01*
X30848Y27768D01*
X30864Y27850D01*
X30848Y27932D01*
X30818Y27977D01*
Y28113D01*
X30853D01*
Y28587D01*
D02*
G37*
G36*
X31427Y27776D02*
X31250D01*
Y27608D01*
X31427D01*
Y27776D01*
D02*
G37*
G36*
X31150D02*
X30973D01*
Y27608D01*
X31150D01*
Y27776D01*
D02*
G37*
G36*
X33150Y27826D02*
X32973D01*
Y27658D01*
X33150D01*
Y27826D01*
D02*
G37*
G36*
X39153Y28039D02*
X39022D01*
Y27902D01*
X39035Y27832D01*
X39075Y27774D01*
X39134Y27734D01*
X39153Y27730D01*
Y28039D01*
D02*
G37*
G36*
X39400Y28763D02*
X39000D01*
X38938Y28751D01*
X38885Y28715D01*
X37632Y27463D01*
X34934D01*
X34882Y27498D01*
X34800Y27514D01*
X34718Y27498D01*
X34673Y27468D01*
X33427D01*
Y27542D01*
X32973D01*
Y27468D01*
X32752D01*
Y27654D01*
X32396D01*
Y27101D01*
X32752D01*
Y27142D01*
X32973D01*
Y27107D01*
X33427D01*
Y27142D01*
X34659D01*
X34718Y27102D01*
X34800Y27086D01*
X34882Y27102D01*
X34934Y27137D01*
X35440D01*
X35455Y27089D01*
X35399Y27051D01*
X35352Y26982D01*
X35346Y26950D01*
X35754D01*
X35748Y26982D01*
X35701Y27051D01*
X35645Y27089D01*
X35660Y27137D01*
X37700D01*
X37762Y27149D01*
X37815Y27185D01*
X37815Y27185D01*
X37815Y27185D01*
X38989Y28358D01*
X39033Y28335D01*
X39022Y28276D01*
Y28139D01*
X39203D01*
Y28089D01*
X39253D01*
Y27730D01*
X39273Y27734D01*
X39332Y27774D01*
X39364Y27822D01*
X39412Y27809D01*
X39419Y27724D01*
Y27724D01*
X39775D01*
Y28454D01*
X39752D01*
X39751Y28462D01*
X39715Y28515D01*
X39515Y28715D01*
X39462Y28751D01*
X39400Y28763D01*
D02*
G37*
G36*
X33427Y27826D02*
X33250D01*
Y27658D01*
X33427D01*
Y27826D01*
D02*
G37*
G36*
X38997Y27509D02*
X38751D01*
Y27145D01*
X38997D01*
Y27509D01*
D02*
G37*
G36*
X38651D02*
X38405D01*
Y27145D01*
X38651D01*
Y27509D01*
D02*
G37*
G36*
X28616Y27300D02*
X28488D01*
Y26985D01*
X28616D01*
Y27300D01*
D02*
G37*
G36*
X40059Y27519D02*
X39812D01*
Y27155D01*
X40059D01*
Y27519D01*
D02*
G37*
G36*
X32004Y27654D02*
X31648D01*
Y27418D01*
X31427D01*
Y27492D01*
X30973D01*
Y27057D01*
X31427D01*
Y27092D01*
X31795D01*
X31843Y27101D01*
X32004D01*
Y27654D01*
D02*
G37*
G36*
X28616Y27716D02*
X28488D01*
Y27400D01*
X28616D01*
Y27716D01*
D02*
G37*
G36*
X40405Y27519D02*
X40159D01*
Y27155D01*
X40405D01*
Y27519D01*
D02*
G37*
G36*
X43105Y28051D02*
X42741D01*
Y27805D01*
X43105D01*
Y28051D01*
D02*
G37*
G36*
X27732Y28493D02*
X27328D01*
Y28326D01*
X27732D01*
Y28493D01*
D02*
G37*
G36*
X27228D02*
X26824D01*
Y28326D01*
X27228D01*
Y28493D01*
D02*
G37*
G36*
X25237Y28803D02*
Y28803D01*
X24763D01*
Y28407D01*
X24984D01*
X25171Y28221D01*
X25207Y28196D01*
X25250Y28188D01*
X25250Y28188D01*
X26250D01*
X26250Y28188D01*
X26293Y28196D01*
X26329Y28221D01*
X26516Y28407D01*
X26737D01*
Y28803D01*
X26263D01*
D01*
D01*
X26263Y28803D01*
X26237D01*
Y28803D01*
X25763D01*
Y28803D01*
X25743Y28803D01*
X25737Y28803D01*
Y28803D01*
X25737D01*
X25737D01*
X25263D01*
D01*
D01*
X25263Y28803D01*
X25237D01*
D02*
G37*
G36*
X42111Y28553D02*
X41802D01*
X41806Y28534D01*
X41846Y28475D01*
X41905Y28435D01*
X41974Y28422D01*
X42111D01*
Y28553D01*
D02*
G37*
G36*
X27732Y28761D02*
X27328D01*
Y28593D01*
X27732D01*
Y28761D01*
D02*
G37*
G36*
X27228D02*
X26824D01*
Y28593D01*
X27228D01*
Y28761D01*
D02*
G37*
G36*
X42520Y28553D02*
X42211D01*
Y28422D01*
X42348D01*
X42418Y28435D01*
X42476Y28475D01*
X42516Y28534D01*
X42520Y28553D01*
D02*
G37*
G36*
X28451Y28749D02*
X27858D01*
Y27920D01*
X28451D01*
Y28749D01*
D02*
G37*
G36*
X31427Y28043D02*
X31250D01*
Y27876D01*
X31427D01*
Y28043D01*
D02*
G37*
G36*
X31150D02*
X30973D01*
Y27876D01*
X31150D01*
Y28043D01*
D02*
G37*
G36*
X33150Y28093D02*
X32973D01*
Y27926D01*
X33150D01*
Y28093D01*
D02*
G37*
G36*
X43105Y28397D02*
X42741D01*
Y28151D01*
X43105D01*
Y28397D01*
D02*
G37*
G36*
X30262Y28759D02*
X29669D01*
Y27930D01*
X30262D01*
Y28759D01*
D02*
G37*
G36*
X33427Y28093D02*
X33250D01*
Y27926D01*
X33427D01*
Y28093D01*
D02*
G37*
G36*
X38382Y34648D02*
X38057D01*
Y34500D01*
X38382D01*
Y34648D01*
D02*
G37*
G36*
X40525Y34716D02*
X40328D01*
Y34450D01*
X40525D01*
Y34716D01*
D02*
G37*
G36*
X40124Y34550D02*
X39776D01*
X39780Y34530D01*
X39820Y34470D01*
X39850Y34450D01*
Y34400D01*
X39820Y34380D01*
X39780Y34320D01*
X39776Y34300D01*
X40124D01*
X40120Y34320D01*
X40080Y34380D01*
X40050Y34400D01*
Y34450D01*
X40080Y34470D01*
X40120Y34530D01*
X40124Y34550D01*
D02*
G37*
G36*
X38807Y34648D02*
X38482D01*
Y34500D01*
X38807D01*
Y34648D01*
D02*
G37*
G36*
X39550Y34774D02*
Y34650D01*
X39674D01*
X39670Y34670D01*
X39630Y34730D01*
X39570Y34770D01*
X39550Y34774D01*
D02*
G37*
G36*
X39450D02*
X39430Y34770D01*
X39370Y34730D01*
X39330Y34670D01*
X39326Y34650D01*
X39450D01*
Y34774D01*
D02*
G37*
G36*
X39100D02*
Y34650D01*
X39224D01*
X39220Y34670D01*
X39180Y34730D01*
X39120Y34770D01*
X39100Y34774D01*
D02*
G37*
G36*
X38382Y34400D02*
X38057D01*
Y34252D01*
X38382D01*
Y34400D01*
D02*
G37*
G36*
X39674Y34200D02*
X39550D01*
Y34076D01*
X39570Y34080D01*
X39630Y34120D01*
X39670Y34180D01*
X39674Y34200D01*
D02*
G37*
G36*
X39450D02*
X39326D01*
X39330Y34180D01*
X39370Y34120D01*
X39430Y34080D01*
X39450Y34076D01*
Y34200D01*
D02*
G37*
G36*
X38807Y34400D02*
X38482D01*
Y34252D01*
X38807D01*
Y34400D01*
D02*
G37*
G36*
X39674Y34550D02*
X39326D01*
X39330Y34530D01*
X39370Y34470D01*
X39400Y34450D01*
Y34400D01*
X39370Y34380D01*
X39330Y34320D01*
X39326Y34300D01*
X39674D01*
X39670Y34320D01*
X39630Y34380D01*
X39599Y34400D01*
Y34450D01*
X39630Y34470D01*
X39670Y34530D01*
X39674Y34550D01*
D02*
G37*
G36*
X39224D02*
X38876D01*
X38880Y34530D01*
X38920Y34470D01*
X38951Y34450D01*
Y34400D01*
X38920Y34380D01*
X38880Y34320D01*
X38876Y34300D01*
X39224D01*
X39220Y34320D01*
X39180Y34380D01*
X39149Y34400D01*
Y34450D01*
X39180Y34470D01*
X39220Y34530D01*
X39224Y34550D01*
D02*
G37*
G36*
X40450Y35464D02*
X40368Y35448D01*
X40299Y35401D01*
X40252Y35332D01*
X40236Y35250D01*
X40252Y35168D01*
X40299Y35099D01*
X40368Y35052D01*
X40450Y35036D01*
X40496Y35045D01*
X40779Y34762D01*
X40760Y34716D01*
X40625D01*
Y34450D01*
X40822D01*
Y34654D01*
X40868Y34673D01*
X40978Y34564D01*
Y34084D01*
X40978Y34084D01*
X40978Y34066D01*
X40978D01*
Y33434D01*
X41363D01*
X41499Y33299D01*
X41568Y33252D01*
X41650Y33236D01*
X42174D01*
X42179Y33229D01*
X42244Y33179D01*
X42319Y33148D01*
X42400Y33137D01*
X42481Y33148D01*
X42556Y33179D01*
X42621Y33229D01*
X42671Y33294D01*
X42702Y33369D01*
X42707Y33405D01*
X42741D01*
X42741D01*
X42745Y33405D01*
X42745Y33405D01*
X42745Y33405D01*
X43105D01*
Y33651D01*
X42741D01*
Y33565D01*
X42692Y33556D01*
X42671Y33606D01*
X42621Y33671D01*
X42556Y33721D01*
X42481Y33752D01*
X42400Y33763D01*
X42319Y33752D01*
X42244Y33721D01*
X42179Y33671D01*
X42174Y33664D01*
X41739D01*
X41472Y33931D01*
Y34066D01*
D01*
Y34066D01*
X41472Y34066D01*
Y34084D01*
X41472D01*
Y34485D01*
X41796D01*
Y34419D01*
X41890D01*
X41905Y34371D01*
X41846Y34332D01*
X41806Y34273D01*
X41802Y34253D01*
X42520D01*
X42516Y34273D01*
X42476Y34332D01*
X42418Y34371D01*
D01*
D01*
X42432Y34419D01*
X42526D01*
Y34775D01*
X41796D01*
Y34709D01*
X41472D01*
Y34716D01*
X41143D01*
X40655Y35204D01*
X40664Y35250D01*
X40648Y35332D01*
X40601Y35401D01*
X40532Y35448D01*
X40450Y35464D01*
D02*
G37*
G36*
X39900Y34774D02*
X39880Y34770D01*
X39820Y34730D01*
X39780Y34670D01*
X39776Y34650D01*
X39900D01*
Y34774D01*
D02*
G37*
G36*
X32106Y35600D02*
X31846D01*
Y35340D01*
X32106D01*
Y35600D01*
D02*
G37*
G36*
X31227Y35393D02*
X31050D01*
Y35226D01*
X31227D01*
Y35393D01*
D02*
G37*
G36*
X43095Y35405D02*
X42731D01*
Y35159D01*
X43095D01*
Y35405D01*
D02*
G37*
G36*
X32466Y35600D02*
X32206D01*
Y35340D01*
X32466D01*
Y35600D01*
D02*
G37*
G36*
Y35960D02*
X32206D01*
Y35700D01*
X32466D01*
Y35960D01*
D02*
G37*
G36*
X32106D02*
X31846D01*
Y35700D01*
X32106D01*
Y35960D01*
D02*
G37*
G36*
X39977Y35592D02*
X39800D01*
Y35424D01*
X39977D01*
Y35592D01*
D02*
G37*
G36*
X35586Y35005D02*
X35300D01*
Y34778D01*
X35586D01*
Y35005D01*
D02*
G37*
G36*
X34500D02*
X34214D01*
Y34778D01*
X34500D01*
Y35005D01*
D02*
G37*
G36*
X40000Y34774D02*
Y34650D01*
X40124D01*
X40120Y34670D01*
X40080Y34730D01*
X40020Y34770D01*
X40000Y34774D01*
D02*
G37*
G36*
X43095Y35059D02*
X42731D01*
Y34812D01*
X43095D01*
Y35059D01*
D02*
G37*
G36*
X39977Y35324D02*
X39800D01*
Y35157D01*
X39977D01*
Y35324D01*
D02*
G37*
G36*
X29700Y35964D02*
X29618Y35948D01*
X29549Y35901D01*
X29502Y35832D01*
X29486Y35750D01*
X29502Y35668D01*
X29549Y35599D01*
X29562Y35589D01*
Y35428D01*
X29257D01*
Y35117D01*
X29210Y35098D01*
X28909Y35400D01*
X28928Y35446D01*
X28943D01*
Y35802D01*
X28371D01*
Y35446D01*
X28545D01*
X28891Y35100D01*
X28872Y35054D01*
X28371D01*
Y34929D01*
X28371Y34929D01*
X28371Y34929D01*
X27921Y34479D01*
X27896Y34443D01*
X27888Y34400D01*
X27888Y34400D01*
Y34293D01*
X27713D01*
Y34207D01*
X27645D01*
X27645Y34207D01*
X27602Y34199D01*
X27566Y34175D01*
X27566Y34175D01*
X27421Y34029D01*
X27396Y33993D01*
X27394Y33982D01*
X27349Y33951D01*
X27302Y33882D01*
X27286Y33800D01*
X27302Y33718D01*
X27349Y33649D01*
X27418Y33602D01*
X27500Y33586D01*
X27582Y33602D01*
X27651Y33649D01*
X27665Y33669D01*
X27713Y33654D01*
Y33407D01*
X27603Y33298D01*
X26781D01*
X26728Y33287D01*
X26715Y33279D01*
X26218D01*
Y32962D01*
Y32647D01*
Y32332D01*
Y32017D01*
Y31910D01*
X27264D01*
Y32017D01*
Y32332D01*
Y32388D01*
X27550D01*
X27550Y32388D01*
X27593Y32396D01*
X27629Y32421D01*
X27744Y32536D01*
X27794Y32528D01*
X27805Y32507D01*
X27777Y32465D01*
X27765Y32407D01*
X27777Y32350D01*
X27810Y32300D01*
Y32259D01*
X27777Y32210D01*
X27765Y32152D01*
X27777Y32094D01*
X27810Y32044D01*
Y32003D01*
X27777Y31954D01*
X27775Y31946D01*
X28708D01*
X28707Y31954D01*
X28696Y31970D01*
X28703Y31984D01*
X28752Y31996D01*
X28818Y31952D01*
X28900Y31936D01*
X28982Y31952D01*
X29051Y31999D01*
X29098Y32068D01*
X29114Y32150D01*
X29098Y32232D01*
X29051Y32301D01*
X28982Y32348D01*
X28918Y32361D01*
X28903Y32408D01*
X28947Y32453D01*
X28977Y32497D01*
X28988Y32550D01*
Y32750D01*
X28988Y32750D01*
X28977Y32803D01*
X28947Y32847D01*
X28747Y33047D01*
X28703Y33077D01*
X28650Y33088D01*
X27848D01*
X27829Y33134D01*
X28002Y33307D01*
X28187D01*
Y33307D01*
X28187D01*
X28187Y33307D01*
X28223Y33307D01*
Y33307D01*
X28400D01*
Y33524D01*
X28500D01*
Y33307D01*
X28677D01*
Y33307D01*
X28679D01*
X28714Y33272D01*
Y33228D01*
X29000D01*
Y33505D01*
X29100D01*
Y33228D01*
X29379D01*
X29379Y33228D01*
Y33228D01*
X29386Y33228D01*
X29400D01*
X29414D01*
X29421Y33228D01*
X29421Y33228D01*
Y33228D01*
X29700D01*
Y33505D01*
X29750D01*
Y33555D01*
X30086D01*
Y33690D01*
X30132Y33710D01*
X30257Y33584D01*
Y33213D01*
X30653D01*
Y33687D01*
X30471D01*
X30292Y33867D01*
X30311Y33913D01*
X30653D01*
Y34387D01*
D01*
Y34387D01*
X30672Y34407D01*
X30727D01*
Y34407D01*
X30727D01*
X30727Y34407D01*
X30773Y34407D01*
Y34407D01*
X30847D01*
Y34407D01*
Y34387D01*
X30847Y34372D01*
X30847Y34372D01*
X30847D01*
Y33913D01*
X30938D01*
Y33687D01*
X30847D01*
Y33213D01*
X30938D01*
Y32815D01*
X30633D01*
X30575Y32803D01*
X30526Y32771D01*
X30494Y32721D01*
X30482Y32663D01*
X30494Y32605D01*
X30526Y32556D01*
Y32515D01*
X30494Y32465D01*
X30482Y32407D01*
X30494Y32350D01*
X30526Y32300D01*
Y32259D01*
X30494Y32210D01*
X30482Y32152D01*
X30494Y32094D01*
X30526Y32044D01*
Y32003D01*
X30494Y31954D01*
X30482Y31896D01*
X30494Y31838D01*
X30526Y31789D01*
Y31747D01*
X30494Y31698D01*
X30482Y31640D01*
X30494Y31582D01*
X30526Y31533D01*
Y31491D01*
X30494Y31442D01*
X30482Y31384D01*
X30494Y31326D01*
X30526Y31277D01*
Y31235D01*
X30494Y31186D01*
X30482Y31128D01*
X30494Y31070D01*
X30526Y31021D01*
Y30979D01*
X30494Y30930D01*
X30492Y30922D01*
X31425D01*
X31423Y30930D01*
X31390Y30979D01*
Y31021D01*
X31423Y31070D01*
X31435Y31128D01*
X31423Y31186D01*
X31390Y31235D01*
Y31277D01*
X31423Y31326D01*
X31435Y31384D01*
X31423Y31442D01*
X31390Y31491D01*
Y31533D01*
X31423Y31582D01*
X31435Y31640D01*
X31423Y31698D01*
X31390Y31747D01*
Y31789D01*
X31423Y31838D01*
X31435Y31896D01*
X31423Y31954D01*
X31390Y32003D01*
Y32044D01*
X31423Y32094D01*
X31435Y32152D01*
X31423Y32210D01*
X31390Y32259D01*
Y32300D01*
X31423Y32350D01*
X31435Y32407D01*
X31423Y32465D01*
X31390Y32515D01*
Y32556D01*
X31423Y32605D01*
X31435Y32663D01*
X31423Y32721D01*
X31390Y32771D01*
X31341Y32803D01*
X31283Y32815D01*
X31162D01*
Y33213D01*
X31243D01*
Y33687D01*
X31162D01*
Y33913D01*
X31243D01*
Y34372D01*
X31243Y34372D01*
D01*
D01*
X31243Y34372D01*
X31243Y34387D01*
X31233Y34399D01*
Y34399D01*
X31227Y34407D01*
X31227Y34423D01*
X31227Y34423D01*
X31227D01*
Y34842D01*
X31003D01*
X30933Y34912D01*
X30950Y34954D01*
Y35176D01*
Y35393D01*
X30773D01*
D01*
D01*
X30773Y35393D01*
X30727Y35393D01*
Y35393D01*
X30273D01*
Y35388D01*
X29838D01*
Y35589D01*
X29851Y35599D01*
X29898Y35668D01*
X29914Y35750D01*
X29898Y35832D01*
X29851Y35901D01*
X29782Y35948D01*
X29700Y35964D01*
D02*
G37*
G36*
X31227Y35126D02*
X31050D01*
Y34958D01*
X31227D01*
Y35126D01*
D02*
G37*
G36*
X30086Y33455D02*
X29800D01*
Y33228D01*
X30086D01*
Y33455D01*
D02*
G37*
G36*
X43135Y32742D02*
X42770D01*
Y32496D01*
X43135D01*
Y32742D01*
D02*
G37*
G36*
X38138Y32067D02*
X38109D01*
Y31995D01*
X38248D01*
X38224Y32031D01*
X38185Y32057D01*
X38138Y32067D01*
D02*
G37*
G36*
X40822Y33700D02*
X40625D01*
Y33434D01*
X40822D01*
Y33700D01*
D02*
G37*
G36*
X40525D02*
X40328D01*
Y33434D01*
X40525D01*
Y33700D01*
D02*
G37*
G36*
X36543Y35148D02*
X35793D01*
Y34752D01*
X35987D01*
Y34648D01*
X35793D01*
Y34613D01*
X34950D01*
X34888Y34601D01*
X34835Y34565D01*
X34285Y34015D01*
X34249Y33962D01*
X34237Y33900D01*
Y32116D01*
X34232Y32113D01*
X34035Y31915D01*
X33999Y31862D01*
X33987Y31800D01*
Y31660D01*
X33971Y31636D01*
X33963Y31594D01*
X33970Y31556D01*
X33926Y31533D01*
X33562Y31896D01*
Y32396D01*
X33666D01*
Y32766D01*
X33666Y32766D01*
D01*
D01*
X33666Y32768D01*
Y32776D01*
Y32785D01*
Y32790D01*
Y32802D01*
X33666Y32803D01*
X33666Y32804D01*
X33712Y32829D01*
X33712Y32829D01*
X33821Y32721D01*
X33816Y32700D01*
X33830Y32630D01*
X33870Y32570D01*
X33930Y32530D01*
X34000Y32516D01*
X34070Y32530D01*
X34130Y32570D01*
X34170Y32630D01*
X34184Y32700D01*
X34170Y32770D01*
X34130Y32830D01*
X34070Y32870D01*
X34000Y32884D01*
X33979Y32879D01*
X33926Y32932D01*
X33950Y32976D01*
X34000Y32966D01*
X34070Y32980D01*
X34130Y33020D01*
X34170Y33080D01*
X34184Y33150D01*
X34170Y33220D01*
X34130Y33280D01*
X34070Y33320D01*
X34000Y33334D01*
X33979Y33329D01*
X33943Y33354D01*
X33900Y33362D01*
X33900Y33362D01*
X33701D01*
X33666Y33398D01*
Y33398D01*
Y33406D01*
Y33415D01*
Y33420D01*
Y33432D01*
X33666Y33433D01*
X33666Y33434D01*
X33666Y33434D01*
X33666D01*
Y33488D01*
X33858D01*
X33870Y33470D01*
X33930Y33430D01*
X34000Y33416D01*
X34070Y33430D01*
X34130Y33470D01*
X34170Y33530D01*
X34184Y33600D01*
X34170Y33670D01*
X34130Y33730D01*
X34070Y33770D01*
X34000Y33784D01*
X33930Y33770D01*
X33870Y33730D01*
X33858Y33712D01*
X33666D01*
Y33804D01*
X33192D01*
Y33434D01*
X33192Y33434D01*
X33192D01*
X33192Y33432D01*
Y33415D01*
Y33398D01*
X33192Y33396D01*
X33192Y33396D01*
X33192D01*
Y33119D01*
X33192Y33119D01*
X33192D01*
X33192Y33117D01*
Y33100D01*
Y33083D01*
X33192Y33081D01*
X33192Y33081D01*
X33192D01*
Y32804D01*
X33192Y32804D01*
X33192D01*
X33192Y32802D01*
Y32785D01*
Y32768D01*
X33192Y32766D01*
X33192Y32766D01*
X33192D01*
Y32396D01*
X33338D01*
Y31850D01*
X33338Y31850D01*
X33342Y31828D01*
X33298Y31805D01*
X32901Y32201D01*
X32888Y32211D01*
Y32396D01*
X33008D01*
Y32768D01*
D01*
Y32768D01*
X33008Y32768D01*
Y32802D01*
X33008D01*
Y33083D01*
D01*
Y33083D01*
X33008Y33083D01*
Y33117D01*
X33008D01*
Y33398D01*
D01*
Y33398D01*
X33008Y33398D01*
Y33432D01*
X33008D01*
Y33568D01*
X32534D01*
Y33526D01*
X32488Y33507D01*
X32147Y33847D01*
X32103Y33877D01*
X32050Y33888D01*
X31711D01*
X31701Y33901D01*
X31632Y33948D01*
X31550Y33964D01*
X31468Y33948D01*
X31399Y33901D01*
X31352Y33832D01*
X31336Y33750D01*
X31352Y33668D01*
X31399Y33599D01*
X31468Y33552D01*
X31550Y33536D01*
X31632Y33552D01*
X31701Y33599D01*
X31708Y33608D01*
X31757Y33601D01*
X31768Y33565D01*
X31749Y33551D01*
X31702Y33482D01*
X31686Y33400D01*
X31702Y33318D01*
X31737Y33266D01*
Y32900D01*
X31749Y32838D01*
X31785Y32785D01*
X32101Y32468D01*
X32082Y32422D01*
X31514D01*
Y31869D01*
X31514Y31869D01*
X31514Y31831D01*
X31514D01*
Y31605D01*
X32186D01*
Y31668D01*
X32195Y31672D01*
X32237Y31645D01*
Y31000D01*
X32237Y31000D01*
X32237D01*
X32249Y30938D01*
X32285Y30885D01*
X32785Y30385D01*
X32838Y30349D01*
X32900Y30337D01*
X33141D01*
X33160Y30291D01*
X32435Y29565D01*
X32399Y29512D01*
X32387Y29450D01*
Y28599D01*
X32387D01*
X32378D01*
X32352Y28599D01*
X32352Y28599D01*
Y28599D01*
X32250D01*
Y28322D01*
Y28046D01*
X32361D01*
X32361Y28046D01*
Y28046D01*
X32378Y28046D01*
X32387D01*
X32396D01*
X32413Y28046D01*
X32413Y28046D01*
Y28046D01*
X32752D01*
Y28187D01*
X33066D01*
X33118Y28152D01*
X33165Y28143D01*
X33165Y28143D01*
X33200Y28136D01*
X33235Y28143D01*
X33235Y28143D01*
X33282Y28152D01*
X33334Y28187D01*
X33482D01*
X33935Y27735D01*
X33935D01*
X33935Y27735D01*
X33935Y27735D01*
Y27735D01*
X33988Y27699D01*
X34050Y27687D01*
X37550D01*
X37612Y27699D01*
X37665Y27735D01*
X38768Y28837D01*
X41796D01*
Y28819D01*
X41890D01*
X41905Y28771D01*
X41846Y28732D01*
X41806Y28673D01*
X41802Y28653D01*
X42520D01*
X42516Y28673D01*
X42476Y28732D01*
X42418Y28771D01*
D01*
D01*
X42432Y28819D01*
X42526D01*
Y29175D01*
X41796D01*
Y29163D01*
X38700D01*
X38638Y29151D01*
X38585Y29115D01*
X37482Y28013D01*
X34118D01*
X33665Y28465D01*
X33612Y28501D01*
X33550Y28513D01*
X33334D01*
X33282Y28548D01*
X33200Y28564D01*
X33118Y28548D01*
X33066Y28513D01*
X32752D01*
Y28599D01*
X32713D01*
Y29382D01*
X33528Y30197D01*
X33600Y30187D01*
X33681Y30198D01*
X33756Y30229D01*
X33821Y30279D01*
X33866Y30337D01*
X34106D01*
X34128Y30341D01*
X34185Y30285D01*
X34238Y30249D01*
X34300Y30237D01*
X34490D01*
X34514Y30221D01*
X34520Y30220D01*
X34553Y30187D01*
X34559Y30167D01*
X34421Y30029D01*
X34396Y29992D01*
X34388Y29950D01*
X34388Y29950D01*
Y29843D01*
X34263D01*
D01*
D01*
X34263Y29843D01*
X34237D01*
Y29843D01*
X33763D01*
Y29447D01*
X34237D01*
Y29447D01*
X34237D01*
X34237Y29447D01*
X34263D01*
Y29447D01*
X34737D01*
Y29739D01*
X34781Y29763D01*
X34830Y29730D01*
X34900Y29716D01*
X34970Y29730D01*
X34991Y29744D01*
X35035Y29720D01*
X35035Y29720D01*
X35020Y29680D01*
X35020D01*
X34980Y29620D01*
X34966Y29550D01*
X34980Y29480D01*
X35020Y29420D01*
X35080Y29380D01*
X35150Y29366D01*
X35220Y29380D01*
X35280Y29420D01*
X35320Y29480D01*
X35326Y29513D01*
X35357D01*
X35357D01*
X35505Y29513D01*
Y29700D01*
X35357D01*
Y29650D01*
X35309Y29636D01*
X35280Y29680D01*
X35259Y29694D01*
Y30158D01*
X35301Y30221D01*
X35344Y30213D01*
X35386Y30221D01*
X35422Y30245D01*
X35447Y30281D01*
X35448Y30291D01*
X35601D01*
X35947Y29944D01*
Y29513D01*
X35988D01*
Y29157D01*
X35793D01*
Y29083D01*
X35746Y29067D01*
X35733Y29083D01*
X35680Y29124D01*
X35617Y29150D01*
X35600Y29152D01*
Y28900D01*
Y28648D01*
X35617Y28650D01*
X35680Y28676D01*
X35733Y28717D01*
X35746Y28733D01*
X35793Y28717D01*
Y28643D01*
X35923D01*
X35950Y28638D01*
X35977Y28643D01*
X36247D01*
X36266Y28597D01*
X36232Y28563D01*
X34900D01*
X34888Y28561D01*
X34832Y28598D01*
X34771Y28610D01*
X34663Y28718D01*
Y28857D01*
X34737D01*
Y29253D01*
X34273D01*
X34273Y29253D01*
Y29253D01*
X34263Y29253D01*
X34250D01*
X34237D01*
X34227Y29253D01*
X34227Y29253D01*
Y29253D01*
X34050D01*
Y29055D01*
Y28857D01*
X34227D01*
X34227Y28857D01*
Y28857D01*
X34237Y28857D01*
X34250D01*
X34263D01*
X34273Y28857D01*
X34273Y28857D01*
Y28857D01*
X34337D01*
Y28650D01*
X34337Y28650D01*
X34337D01*
X34349Y28588D01*
X34385Y28535D01*
X34540Y28379D01*
X34552Y28318D01*
X34599Y28249D01*
X34668Y28202D01*
X34750Y28186D01*
X34832Y28202D01*
X34888Y28239D01*
X34900Y28237D01*
X36300D01*
X36362Y28249D01*
X36415Y28285D01*
X36738Y28607D01*
X36987D01*
Y28607D01*
X36987D01*
X36987Y28607D01*
X37013D01*
Y28607D01*
X37487D01*
Y28607D01*
X37487D01*
X37487Y28607D01*
X37513D01*
Y28607D01*
X37987D01*
Y29003D01*
X37513D01*
D01*
D01*
X37513Y29003D01*
X37487D01*
Y29003D01*
X37013D01*
D01*
D01*
X37013Y29003D01*
X36987D01*
Y29003D01*
X36513D01*
Y28844D01*
X36353Y28684D01*
X36307Y28703D01*
Y29157D01*
X36212D01*
Y29513D01*
X36343D01*
Y29943D01*
X36363Y29951D01*
X36363Y29951D01*
X36363Y29951D01*
X36699Y30287D01*
Y30287D01*
X36713Y30301D01*
X36713Y30301D01*
X36713Y30301D01*
X37049Y30637D01*
Y30637D01*
X37063Y30651D01*
X37063Y30651D01*
X37063Y30651D01*
X37399Y30987D01*
X37119Y31266D01*
X37056Y31203D01*
X37006D01*
X36929Y31279D01*
X36893Y31304D01*
X36850Y31312D01*
X36850Y31312D01*
X36036D01*
X36017Y31358D01*
X36129Y31471D01*
X36129Y31471D01*
X36154Y31507D01*
X36162Y31550D01*
Y31857D01*
X36210Y31872D01*
X36235Y31835D01*
X36635Y31435D01*
X36688Y31399D01*
X36750Y31387D01*
X36812Y31399D01*
X36865Y31435D01*
X36867Y31438D01*
X37836D01*
X37864Y31405D01*
X38281D01*
X38287Y31413D01*
X38600D01*
Y31650D01*
Y31887D01*
X38287D01*
X38281Y31895D01*
X37864D01*
X37836Y31862D01*
X37046D01*
X36712Y32196D01*
Y34200D01*
X36704Y34243D01*
X36679Y34279D01*
X36679Y34279D01*
X36543Y34416D01*
Y34648D01*
X36313D01*
Y34752D01*
X36543D01*
Y35148D01*
D02*
G37*
G36*
X32186Y31505D02*
X31900D01*
Y31278D01*
X32186D01*
Y31505D01*
D02*
G37*
G36*
X31800D02*
X31514D01*
Y31278D01*
X31800D01*
Y31505D01*
D02*
G37*
G36*
X38248Y31305D02*
X38109D01*
Y31233D01*
X38138D01*
X38185Y31243D01*
X38224Y31269D01*
X38248Y31305D01*
D02*
G37*
G36*
X38009Y32067D02*
X37981D01*
X37934Y32057D01*
X37895Y32031D01*
X37871Y31995D01*
X38009D01*
Y32067D01*
D02*
G37*
G36*
X28708Y31846D02*
X27775D01*
X27777Y31838D01*
X27810Y31789D01*
Y31749D01*
X27774Y31714D01*
X27732D01*
Y31714D01*
X27264D01*
Y31810D01*
X26791D01*
Y31702D01*
X26824D01*
Y31320D01*
X25736D01*
Y30275D01*
X26841D01*
Y31279D01*
X27357D01*
X27372Y31231D01*
X27370Y31230D01*
X27330Y31170D01*
X27316Y31100D01*
X27330Y31030D01*
X27370Y30970D01*
X27401Y30950D01*
Y30900D01*
X27370Y30880D01*
X27330Y30820D01*
X27316Y30750D01*
X27330Y30680D01*
X27370Y30620D01*
X27430Y30580D01*
X27457Y30575D01*
Y30525D01*
X27430Y30520D01*
X27370Y30480D01*
X27330Y30420D01*
X27316Y30350D01*
X27330Y30280D01*
X27343Y30262D01*
X27328Y30234D01*
Y30000D01*
Y29783D01*
X27732D01*
Y29825D01*
X27742Y29835D01*
X27777Y29790D01*
Y29790D01*
D01*
D01*
D01*
X27777Y29790D01*
X27810Y29741D01*
Y29700D01*
X27777Y29650D01*
X27765Y29593D01*
X27777Y29535D01*
X27810Y29485D01*
Y29444D01*
X27777Y29395D01*
X27765Y29337D01*
X27777Y29279D01*
X27810Y29229D01*
X27859Y29197D01*
X27917Y29185D01*
X28567D01*
X28625Y29197D01*
X28674Y29229D01*
X28707Y29279D01*
X28718Y29337D01*
X28707Y29395D01*
X28674Y29444D01*
Y29485D01*
X28707Y29535D01*
X28718Y29593D01*
X28707Y29650D01*
X28674Y29700D01*
Y29741D01*
X28707Y29790D01*
X28708Y29798D01*
X28242D01*
Y29898D01*
X28708D01*
X28707Y29906D01*
X28674Y29956D01*
Y29997D01*
X28707Y30046D01*
X28708Y30054D01*
X28242D01*
Y30154D01*
X28708D01*
X28707Y30162D01*
X28674Y30211D01*
Y30253D01*
X28707Y30302D01*
X28718Y30360D01*
X28707Y30418D01*
X28674Y30467D01*
Y30509D01*
X28707Y30558D01*
X28718Y30616D01*
X28707Y30674D01*
X28674Y30723D01*
Y30765D01*
X28707Y30814D01*
X28718Y30872D01*
X28707Y30930D01*
X28674Y30979D01*
Y31021D01*
X28707Y31070D01*
X28708Y31078D01*
X28242D01*
Y31178D01*
X28708D01*
X28707Y31186D01*
X28674Y31235D01*
Y31277D01*
X28707Y31326D01*
X28718Y31384D01*
X28707Y31442D01*
X28674Y31491D01*
Y31533D01*
X28707Y31582D01*
X28718Y31640D01*
X28707Y31698D01*
X28674Y31747D01*
Y31789D01*
X28707Y31838D01*
X28708Y31846D01*
D02*
G37*
G36*
X26691Y31810D02*
X26218D01*
Y31702D01*
X26691D01*
Y31810D01*
D02*
G37*
G36*
X26841Y34676D02*
X25736D01*
Y33631D01*
X26841D01*
Y34676D01*
D02*
G37*
G36*
X40822Y34350D02*
X40328D01*
Y34101D01*
X40328Y34101D01*
X40328D01*
X40328Y34084D01*
Y34075D01*
Y34066D01*
X40328Y34049D01*
X40328Y34049D01*
X40328D01*
Y33800D01*
X40822D01*
Y34049D01*
X40822Y34049D01*
D01*
D01*
X40822Y34066D01*
Y34068D01*
Y34075D01*
X40822Y34084D01*
D01*
X40822Y34101D01*
X40822Y34101D01*
X40822D01*
Y34350D01*
D02*
G37*
G36*
X43105Y33997D02*
X42741D01*
Y33751D01*
X43105D01*
Y33997D01*
D02*
G37*
G36*
X40124Y33850D02*
X40000D01*
Y33726D01*
X40020Y33730D01*
X40080Y33770D01*
X40120Y33830D01*
X40124Y33850D01*
D02*
G37*
G36*
X39224Y34200D02*
X38876D01*
X38880Y34180D01*
X38920Y34120D01*
X38951Y34100D01*
Y34050D01*
X38920Y34030D01*
X38880Y33970D01*
X38876Y33950D01*
X39224D01*
X39220Y33970D01*
X39180Y34030D01*
X39149Y34050D01*
Y34100D01*
X39180Y34120D01*
X39220Y34180D01*
X39224Y34200D01*
D02*
G37*
G36*
X42520Y34153D02*
X42211D01*
Y34022D01*
X42348D01*
X42418Y34035D01*
X42476Y34075D01*
X42516Y34134D01*
X42520Y34153D01*
D02*
G37*
G36*
X42111D02*
X41802D01*
X41806Y34134D01*
X41846Y34075D01*
X41905Y34035D01*
X41974Y34022D01*
X42111D01*
Y34153D01*
D02*
G37*
G36*
X40124Y34200D02*
X39776D01*
X39780Y34180D01*
X39820Y34120D01*
X39850Y34100D01*
Y34050D01*
X39820Y34030D01*
X39780Y33970D01*
X39776Y33950D01*
X40124D01*
X40120Y33970D01*
X40080Y34030D01*
X40050Y34050D01*
Y34100D01*
X40080Y34120D01*
X40120Y34180D01*
X40124Y34200D01*
D02*
G37*
G36*
X39900Y33850D02*
X39776D01*
X39780Y33830D01*
X39820Y33770D01*
X39880Y33730D01*
X39900Y33726D01*
Y33850D01*
D02*
G37*
G36*
X39000D02*
X38876D01*
X38880Y33830D01*
X38920Y33770D01*
X38980Y33730D01*
X39000Y33726D01*
Y33850D01*
D02*
G37*
G36*
X33008Y33804D02*
X32821D01*
Y33668D01*
X33008D01*
Y33804D01*
D02*
G37*
G36*
X32721D02*
X32534D01*
Y33668D01*
X32721D01*
Y33804D01*
D02*
G37*
G36*
X39224Y33850D02*
X39100D01*
Y33726D01*
X39120Y33730D01*
X39180Y33770D01*
X39220Y33830D01*
X39224Y33850D01*
D02*
G37*
%LPD*%
G36*
X34795Y33997D02*
X34786Y33950D01*
X34802Y33868D01*
X34849Y33799D01*
X34918Y33752D01*
X35000Y33736D01*
X35082Y33752D01*
X35134Y33787D01*
X35269D01*
X35293Y33743D01*
X35252Y33682D01*
X35236Y33600D01*
X35252Y33518D01*
X35299Y33449D01*
X35310Y33441D01*
X35296Y33393D01*
X35173D01*
X35173Y33393D01*
Y33393D01*
X35163Y33393D01*
X35150D01*
X35137D01*
X35127Y33393D01*
X35127Y33393D01*
Y33393D01*
X34950D01*
Y33195D01*
Y32997D01*
X35127D01*
X35127Y32997D01*
Y32997D01*
X35137Y32997D01*
X35150D01*
X35163D01*
X35173Y32997D01*
X35173Y32997D01*
Y32997D01*
X35350D01*
Y33195D01*
X35400D01*
Y33245D01*
X35637D01*
Y33393D01*
X35604D01*
X35590Y33441D01*
X35601Y33449D01*
X35648Y33518D01*
X35662Y33588D01*
X35754D01*
X35938Y33404D01*
Y31703D01*
X35894Y31680D01*
X35869Y31697D01*
X35826Y31705D01*
X35797D01*
Y31594D01*
X35697D01*
Y31705D01*
X35668D01*
X35626Y31697D01*
X35605Y31683D01*
X35561Y31706D01*
Y31811D01*
X35456D01*
X35433Y31855D01*
X35447Y31876D01*
X35455Y31918D01*
Y31947D01*
X35344D01*
Y32047D01*
X35455D01*
Y32076D01*
X35447Y32119D01*
X35422Y32155D01*
X35390Y32177D01*
X35385Y32226D01*
X35479Y32321D01*
X35479Y32321D01*
X35504Y32357D01*
X35504Y32357D01*
X35504Y32357D01*
X35512Y32400D01*
X35547Y32407D01*
X35637D01*
Y32803D01*
X35163D01*
D01*
D01*
X35163Y32803D01*
X35137D01*
Y32803D01*
X34663D01*
Y32407D01*
X34788D01*
Y32238D01*
X34788Y32238D01*
X34791Y32222D01*
X34756Y32187D01*
X34753Y32187D01*
X34711Y32179D01*
X34674Y32155D01*
X34635D01*
X34599Y32179D01*
X34563Y32186D01*
Y33832D01*
X34751Y34020D01*
X34795Y33997D01*
D02*
G37*
%LPC*%
G36*
X34850Y33145D02*
X34663D01*
Y32997D01*
X34850D01*
Y33145D01*
D02*
G37*
G36*
Y33393D02*
X34663D01*
Y33245D01*
X34850D01*
Y33393D01*
D02*
G37*
G36*
X35637Y33145D02*
X35450D01*
Y32997D01*
X35637D01*
Y33145D01*
D02*
G37*
%LPD*%
D10*
X32574Y28322D02*
D03*
X32200D02*
D03*
X31826D02*
D03*
Y27378D02*
D03*
X32574D02*
D03*
D11*
X26741Y31860D02*
D03*
Y32175D02*
D03*
Y32490D02*
D03*
Y33120D02*
D03*
Y32805D02*
D03*
D12*
X24615Y30797D02*
D03*
Y34153D02*
D03*
X26288Y30797D02*
D03*
Y34153D02*
D03*
D13*
X43155Y28101D02*
D03*
X43145Y29509D02*
D03*
X41294Y30634D02*
D03*
X41285Y32446D02*
D03*
X43155Y33701D02*
D03*
X43145Y35109D02*
D03*
X43185Y32446D02*
D03*
X43194Y30634D02*
D03*
D14*
X42161Y28997D02*
D03*
X40300Y31934D02*
D03*
X42161Y34597D02*
D03*
X42200Y31934D02*
D03*
D15*
X42161Y28603D02*
D03*
X40300Y31540D02*
D03*
Y31146D02*
D03*
X42161Y34203D02*
D03*
X42200Y31146D02*
D03*
Y31540D02*
D03*
D16*
X34950Y31200D02*
D03*
D17*
X34153Y30806D02*
D03*
Y31003D02*
D03*
Y31200D02*
D03*
Y31397D02*
D03*
Y31594D02*
D03*
X35747D02*
D03*
Y31397D02*
D03*
Y31200D02*
D03*
Y31003D02*
D03*
Y30806D02*
D03*
D18*
X34556Y31997D02*
D03*
X34753D02*
D03*
X34950D02*
D03*
X35147D02*
D03*
X35344D02*
D03*
Y30403D02*
D03*
X35147D02*
D03*
X34950D02*
D03*
X34753D02*
D03*
X34556D02*
D03*
D19*
X32771Y33618D02*
D03*
Y32582D02*
D03*
X33429D02*
D03*
Y33618D02*
D03*
D20*
X32771Y33257D02*
D03*
Y32943D02*
D03*
X33429D02*
D03*
Y33257D02*
D03*
D21*
X29454Y27350D02*
D03*
X29060D02*
D03*
X39203Y28089D02*
D03*
D22*
X28666Y27350D02*
D03*
X39597Y28089D02*
D03*
D23*
X28154Y28335D02*
D03*
X29966Y28344D02*
D03*
X38701Y27095D02*
D03*
X40109Y27105D02*
D03*
D24*
X38059Y31945D02*
D03*
Y31748D02*
D03*
Y31552D02*
D03*
Y31355D02*
D03*
X39241D02*
D03*
Y31552D02*
D03*
Y31748D02*
D03*
Y31945D02*
D03*
D25*
X38650Y31650D02*
D03*
D26*
X30958Y29337D02*
D03*
Y29593D02*
D03*
Y29848D02*
D03*
Y30104D02*
D03*
Y30360D02*
D03*
Y30616D02*
D03*
Y30872D02*
D03*
Y31128D02*
D03*
Y31384D02*
D03*
Y31640D02*
D03*
Y31896D02*
D03*
Y32152D02*
D03*
Y32407D02*
D03*
Y32663D02*
D03*
X28242Y29337D02*
D03*
Y29593D02*
D03*
Y29848D02*
D03*
Y30104D02*
D03*
Y30360D02*
D03*
Y30616D02*
D03*
Y30872D02*
D03*
Y31128D02*
D03*
Y31384D02*
D03*
Y31640D02*
D03*
Y31896D02*
D03*
Y32152D02*
D03*
Y32407D02*
D03*
Y32663D02*
D03*
D27*
X37277Y33624D02*
D03*
D28*
X37277Y33250D02*
D03*
Y32876D02*
D03*
X38123D02*
D03*
Y33624D02*
D03*
D29*
X36168Y35950D02*
D03*
Y35450D02*
D03*
Y34950D02*
D03*
Y34450D02*
D03*
X38432Y35950D02*
D03*
Y35450D02*
D03*
Y34950D02*
D03*
Y34450D02*
D03*
D30*
X41225Y34400D02*
D03*
X40575D02*
D03*
X41225Y33750D02*
D03*
X40575D02*
D03*
D31*
X27950Y34095D02*
D03*
Y33505D02*
D03*
X34000Y29055D02*
D03*
Y29645D02*
D03*
X34500Y29055D02*
D03*
Y29645D02*
D03*
X39250Y35355D02*
D03*
Y35945D02*
D03*
X34900Y32605D02*
D03*
Y33195D02*
D03*
X35400Y32605D02*
D03*
Y33195D02*
D03*
X26000Y28605D02*
D03*
Y29195D02*
D03*
X26500Y28605D02*
D03*
Y29195D02*
D03*
X36750Y28805D02*
D03*
Y29395D02*
D03*
X37250Y28805D02*
D03*
Y29395D02*
D03*
X37750Y28805D02*
D03*
Y29395D02*
D03*
X25000Y29195D02*
D03*
Y28605D02*
D03*
X25500Y29195D02*
D03*
Y28605D02*
D03*
D32*
X31045Y34150D02*
D03*
X30455D02*
D03*
X30455Y33450D02*
D03*
X31045D02*
D03*
X35555Y29750D02*
D03*
X36145D02*
D03*
X30655Y28350D02*
D03*
X31245D02*
D03*
D33*
X36809Y29841D02*
D03*
X36391Y30259D02*
D03*
X37159Y30191D02*
D03*
X36741Y30609D02*
D03*
X37509Y30541D02*
D03*
X37091Y30959D02*
D03*
D34*
X29050Y34095D02*
D03*
Y33505D02*
D03*
X35250Y35055D02*
D03*
Y35645D02*
D03*
X34550Y35055D02*
D03*
Y35645D02*
D03*
X29750Y34095D02*
D03*
Y33505D02*
D03*
X31850Y32145D02*
D03*
Y31555D02*
D03*
D35*
X28657Y35624D02*
D03*
Y34876D02*
D03*
X29543Y35250D02*
D03*
D36*
X28450Y34076D02*
D03*
Y33524D02*
D03*
X31000Y35176D02*
D03*
Y34624D02*
D03*
X30500Y34624D02*
D03*
Y35176D02*
D03*
X31850Y30726D02*
D03*
Y30174D02*
D03*
X31200Y27274D02*
D03*
Y27826D02*
D03*
X33200Y27324D02*
D03*
Y27876D02*
D03*
X39750Y35374D02*
D03*
Y35926D02*
D03*
D37*
X37300Y35600D02*
X37650Y35950D01*
X36750Y36150D02*
X37300Y35600D01*
Y33650D02*
Y35600D01*
X37650Y35950D02*
X38432D01*
X38550D01*
X39800D01*
X38432Y34950D02*
X38850D01*
X39165Y35265D01*
D38*
X41250Y34400D02*
Y34450D01*
X40450Y35250D02*
X41250Y34450D01*
Y34200D02*
X41253Y34197D01*
X36100Y28900D02*
Y29950D01*
X35950Y28750D02*
X36100Y28900D01*
X35647Y30403D02*
X36100Y29950D01*
X35344Y30403D02*
X35647D01*
X43185Y33335D02*
X43200Y33350D01*
X25600Y29200D02*
Y29600D01*
X26050Y29550D02*
X26100Y29600D01*
X26050Y29100D02*
Y29550D01*
X25500Y28600D02*
X26000D01*
X27500Y30750D02*
X27622Y30872D01*
X28242D01*
X36050Y31550D02*
Y33450D01*
X35897Y31397D02*
X36050Y31550D01*
X35747Y31397D02*
X35897D01*
X35800Y33700D02*
X36050Y33450D01*
X34400Y31997D02*
X34753D01*
X36350Y34450D02*
X36600Y34200D01*
Y32150D02*
Y34200D01*
Y32150D02*
X37000Y31750D01*
X35344Y31606D02*
Y31997D01*
X35406Y31594D02*
X35747D01*
X33903Y31397D02*
X34153D01*
X43185Y30735D02*
X43200Y30750D01*
X43185Y30715D02*
Y30735D01*
X43166Y30734D02*
X43185Y30715D01*
X43184Y30734D02*
X43185Y30735D01*
X43155Y30745D02*
X43166Y30734D01*
X43184D01*
X35456Y33700D02*
X35800D01*
X35147Y32147D02*
X35400Y32400D01*
X35147Y31997D02*
Y32147D01*
Y29550D02*
Y30403D01*
X35747Y31200D02*
X36850D01*
X34153Y31100D02*
Y31200D01*
X34950Y31997D02*
Y32090D01*
X34952Y32099D02*
Y32186D01*
X34950Y32096D02*
X34952Y32099D01*
X34753Y30203D02*
Y30403D01*
X34500Y29950D02*
X34703Y30152D01*
Y30153D01*
X34753Y30203D01*
X34153Y31003D02*
Y31100D01*
X42184Y31934D02*
X42200Y31950D01*
X38250Y35450D02*
X38432D01*
X37700Y34900D02*
X38250Y35450D01*
X37700Y33000D02*
Y34900D01*
X37600Y32900D02*
X37700Y33000D01*
X37350Y32900D02*
X37600D01*
X39550Y31750D02*
X39750Y31550D01*
X39200Y31750D02*
X39550D01*
X38902Y31552D02*
X39241D01*
X38900Y31550D02*
X38902Y31552D01*
X39241D02*
X39398D01*
X39800Y31150D01*
X40300D01*
X38059Y31945D02*
X38355D01*
X38650Y31650D01*
X38059Y31355D02*
X38355D01*
X38650Y31650D01*
X37000Y31750D02*
X38100D01*
X37050Y33250D02*
X37277D01*
X36800Y33000D02*
X37050Y33250D01*
X36800Y32300D02*
Y33000D01*
Y32300D02*
X37150Y31950D01*
X38100D01*
X43016Y30634D02*
X43155D01*
X41250Y32450D02*
X41300Y32400D01*
Y33650D02*
Y33700D01*
X36168Y34450D02*
X36350D01*
X36750Y31550D02*
X38100D01*
X43164Y30720D02*
X43166Y30734D01*
X43155Y30634D02*
X43156Y30639D01*
Y30639D01*
X43194Y30634D02*
X43200Y30750D01*
X43156Y30639D02*
X43164Y30720D01*
X43155Y30745D02*
X43194Y30634D01*
X41250Y34597D02*
X42211D01*
X41253Y34197D02*
X41300D01*
X34950Y29950D02*
Y30403D01*
X34900Y29900D02*
X34950Y29950D01*
X34644Y30094D02*
X34644D01*
X25500Y29200D02*
X25600Y29300D01*
X25000Y29200D02*
X25500D01*
X24950Y28600D02*
X25250Y28300D01*
X26250D01*
X26500Y28550D01*
X37800Y29350D02*
Y30250D01*
X36850Y31200D02*
X37100Y30950D01*
X35747Y31003D02*
X36347D01*
X36663Y30687D01*
X36763D01*
X35747Y30806D02*
X35844D01*
X36296Y30354D01*
X36431D01*
X37500Y30550D02*
X37800Y30250D01*
X35400Y32400D02*
Y32600D01*
X34900Y32238D02*
X34952Y32186D01*
X34900Y32238D02*
Y32515D01*
X34850Y32565D02*
X34900Y32515D01*
X35800Y31600D02*
Y32850D01*
X35450Y33200D02*
X35800Y32850D01*
X34900Y33200D02*
X35450D01*
X35550Y28900D02*
Y29750D01*
X34000Y29050D02*
Y29150D01*
X34200Y29350D01*
X34700D02*
X35150Y28900D01*
X35500D01*
X34005Y29645D02*
X34500D01*
X30958Y30872D02*
X31678D01*
X33195Y27845D02*
X33200Y27850D01*
X31200Y27845D02*
X32200D01*
X33195D01*
X34200Y29350D02*
X34700D01*
X34500Y29650D02*
Y29950D01*
X30837Y30100D02*
X30841Y30104D01*
X29450Y27250D02*
Y29050D01*
X29737Y29337D01*
X30841D01*
X29050Y27250D02*
Y29050D01*
X30360Y30360D01*
X30841D01*
X27713Y32663D02*
X28242D01*
X27550Y31100D02*
X27600D01*
X27884Y31384D01*
X28242D01*
X26800Y32500D02*
X27550D01*
X27713Y32663D01*
X33450Y31850D02*
X33903Y31397D01*
X33450Y31850D02*
Y32600D01*
X33500Y32650D01*
X33450Y33600D02*
X34000D01*
X33450Y33250D02*
X33900D01*
X33429Y32943D02*
X33757D01*
X34000Y32700D01*
X37150Y30200D02*
X37250Y30100D01*
Y29400D02*
Y30100D01*
X36750Y29395D02*
Y29800D01*
X36800Y29777D02*
X36837Y29813D01*
X33900Y33250D02*
X34000Y33150D01*
X30950Y32650D02*
X31050Y32750D01*
Y34150D01*
X29850Y34850D02*
X30100Y34600D01*
X29300Y34850D02*
X29850D01*
X28600Y35550D02*
X29300Y34850D01*
X28000Y34100D02*
Y34400D01*
X28450Y34850D01*
X28700D01*
X28000Y34100D02*
X28025Y34125D01*
X29750D01*
X27645Y34095D02*
X28000D01*
X27500Y33950D02*
X27645Y34095D01*
X27500Y33800D02*
Y33950D01*
X29950Y34050D02*
Y34055D01*
Y34050D02*
X30450Y33550D01*
Y33450D02*
Y33550D01*
X30455Y34150D02*
Y34545D01*
X30500Y34605D01*
X30100Y34600D02*
X30500D01*
D39*
X31900Y32900D02*
Y33400D01*
X34400Y33900D02*
X34950Y34450D01*
X34400Y31997D02*
Y33900D01*
X34150Y31800D02*
X34347Y31997D01*
X34150Y31650D02*
Y31800D01*
X34347Y31997D02*
X34556D01*
X34153Y30547D02*
Y30750D01*
Y30547D02*
X34300Y30400D01*
X34500D01*
X34106Y30500D02*
X34153Y30547D01*
X32900Y30500D02*
X33600D01*
X34106D01*
X32400Y31000D02*
X32900Y30500D01*
X32400Y31000D02*
Y31750D01*
X31950Y32200D02*
X32400Y31750D01*
X31700Y32200D02*
X31950D01*
X39750Y31550D02*
X42100D01*
X42350Y32450D02*
X42750Y32050D01*
Y31750D02*
Y32050D01*
X42550Y31550D02*
X42750Y31750D01*
X41300Y32450D02*
X42350D01*
X40300Y31934D02*
X42184D01*
X34950Y34450D02*
X36100D01*
X36150Y34500D02*
Y34918D01*
Y34450D02*
Y34500D01*
X36100Y34450D02*
X36150Y34500D01*
X40397Y31150D02*
X42500D01*
X43016Y30634D01*
X39750Y32450D02*
X41250D01*
X42250Y31550D02*
X42550D01*
X35000Y33950D02*
X36006D01*
X36350Y33606D01*
Y31950D02*
Y33606D01*
Y31950D02*
X36750Y31550D01*
X39203Y27453D02*
Y28089D01*
X38700Y26950D02*
X39203Y27453D01*
X42211Y34203D02*
X43197D01*
X36800Y28800D02*
X37750D01*
X31200Y27255D02*
X31795D01*
X32600Y27305D02*
X33200D01*
X33350D02*
X34800D01*
X39600Y28000D02*
Y28400D01*
X37700Y27300D02*
X39000Y28600D01*
X39400D01*
X39600Y28400D01*
X38700Y29000D02*
X42200D01*
X34500Y28650D02*
Y28950D01*
Y28650D02*
X34750Y28400D01*
X38123Y33624D02*
X38576D01*
X39750Y32450D01*
X28850Y26850D02*
X32500D01*
X28650Y27050D02*
X28850Y26850D01*
X31965Y30685D02*
X32200Y30450D01*
Y26900D02*
Y27845D01*
X32550Y29450D02*
X33600Y30500D01*
X32600Y28350D02*
X33200D01*
X32600Y28322D02*
Y28350D01*
X32550D02*
Y29450D01*
X30655Y27850D02*
Y28350D01*
X31245D02*
X31800D01*
X33200D02*
X33550D01*
X32200Y27845D02*
Y30450D01*
X31900Y32900D02*
X32750Y32050D01*
X34900Y28400D02*
X36300D01*
X36700Y28800D01*
X34800Y27300D02*
X37700D01*
X33550Y28350D02*
X34050Y27850D01*
X37550D01*
X38700Y29000D01*
D40*
X32550Y33250D02*
X32821D01*
X32050Y33750D02*
X32550Y33250D01*
X31550Y33750D02*
X32050D01*
X32750Y32050D02*
Y32900D01*
X27228Y29972D02*
X27256Y30000D01*
X26500Y29135D02*
Y29600D01*
X27492Y30292D02*
X27816Y30616D01*
X28242D01*
X26800Y31900D02*
X28100D01*
X34950Y31200D02*
X35344Y31606D01*
X34950Y31200D02*
X35406Y31594D01*
X28150Y32400D02*
X28700D01*
X40284Y31950D02*
X40300Y31934D01*
X38050Y32900D02*
X38250D01*
X39200Y31950D01*
X40284D01*
X28124Y32152D02*
X28242D01*
X28881D01*
X32800Y33700D02*
Y35032D01*
X32156Y35650D02*
X32200D01*
X32250Y35621D02*
X32821Y35050D01*
X35200D01*
X30841Y30104D02*
X30958D01*
X30250Y29700D02*
Y29900D01*
X30454Y30104D01*
X30841D01*
X30958D02*
X31846D01*
X28700Y32400D02*
X28850Y32550D01*
Y32750D01*
X28650Y32950D02*
X28850Y32750D01*
X26800Y32800D02*
X27500D01*
X27650Y32950D01*
X28650D01*
X29625Y35275D02*
X29700Y35350D01*
Y35750D01*
X29745Y33505D02*
X29750Y33500D01*
X29635Y33565D02*
X29750Y33475D01*
X29635Y33565D02*
X29695Y33505D01*
X29700Y33500D01*
X28500Y33505D02*
X29695D01*
X29745D01*
X26741Y33120D02*
X26781Y33160D01*
X27660D01*
X28000Y33500D01*
X31450Y35650D02*
X32156D01*
X31000Y35200D02*
X31450Y35650D01*
X29563Y35250D02*
X30400D01*
X31050Y34600D01*
D41*
X33700Y31100D02*
X34153D01*
X32750Y32050D02*
X33700Y31100D01*
X41250Y33803D02*
Y34200D01*
X41000Y28100D02*
X43200D01*
X39800Y26900D02*
X41000Y28100D01*
X27256Y30000D02*
X28500D01*
X27300Y28550D02*
Y29979D01*
X31850Y30824D02*
Y31450D01*
X32950Y35650D02*
X34650D01*
X34700Y35700D01*
X36150D01*
Y35500D02*
Y35700D01*
Y35900D01*
X43185Y30735D02*
Y32446D01*
X42600Y32900D02*
X43150Y32350D01*
X43185Y32546D02*
Y33335D01*
X41350Y33100D02*
X41550Y32900D01*
X42600D01*
X41300Y33700D02*
Y33800D01*
X43195Y30595D02*
X43200Y30600D01*
X43184Y30634D02*
X43200Y30650D01*
X41294Y30634D02*
X43016D01*
X43155D02*
X43184D01*
X43200Y33350D02*
Y35100D01*
X32150Y26900D02*
X39800D01*
X41300Y33800D02*
X41650Y33450D01*
X42400D01*
D42*
X32156Y35650D02*
D03*
D43*
X32944D02*
D03*
X42400Y33450D02*
D03*
X33600Y30500D02*
D03*
D44*
X27278Y28543D02*
D03*
Y30000D02*
D03*
Y31496D02*
D03*
D45*
X36050Y28900D02*
D03*
D46*
X35550D02*
D03*
D47*
X39950Y33900D02*
D03*
X39050D02*
D03*
Y34250D02*
D03*
X39500D02*
D03*
X39950D02*
D03*
Y34600D02*
D03*
X39500D02*
D03*
X26500Y29600D02*
D03*
X27500Y30350D02*
D03*
X25600Y29600D02*
D03*
X26050D02*
D03*
X27500Y30750D02*
D03*
Y31100D02*
D03*
X34000Y32700D02*
D03*
Y33150D02*
D03*
Y33600D02*
D03*
X39050Y34600D02*
D03*
X34900Y29900D02*
D03*
X35150Y29550D02*
D03*
D48*
X35186Y31436D02*
D03*
Y30964D02*
D03*
X34714Y31436D02*
D03*
Y30964D02*
D03*
D49*
X36750Y36150D02*
D03*
X35450Y33600D02*
D03*
X35000Y33950D02*
D03*
X35550Y26900D02*
D03*
X40450Y35250D02*
D03*
X29700Y35750D02*
D03*
X27500Y33800D02*
D03*
X31550Y33750D02*
D03*
X31900Y33400D02*
D03*
X32750Y32050D02*
D03*
X34800Y27300D02*
D03*
X34750Y28400D02*
D03*
X28900Y32150D02*
D03*
X33200Y28350D02*
D03*
X30650Y27850D02*
D03*
X30250Y29700D02*
D03*
M02*
