M48
;Layer_Color=9474304
;FILE_FORMAT=2:4
INCH,TZ
;TYPE=PLATED
T1F00S00C0.0120
T2F00S00C0.0130
T3F00S00C0.0150
T5F00S00C0.0236
T6F00S00C0.0280
T7F00S00C0.0295
T8F00S00C0.0591
T9F00S00C0.1181
%
T01
X35150Y29550
X34900Y29900
X27500Y30350
Y30750
Y31100
X26500Y29600
X26050
X25600
X34000Y32700
Y33150
Y33600
X39050Y33900
Y34250
Y34600
X39500
Y34250
X39950
Y33900
Y34600
T02
X34714Y30964
X35186
Y31436
X34714
T03
X33200Y28350
X34750Y28400
X34800Y27300
X35550Y26900
X30650Y27850
X30250Y29700
X28900Y32150
X27500Y33800
X29700Y35750
X31550Y33750
X31900Y33400
X32750Y32050
X35000Y33950
X35450Y33600
X36750Y36150
X40450Y35250
T05
X35550Y28900
X36050
T06
X33600Y30500
X42400Y33450
T07
X32156Y35650
X32944
T08
X25309Y30020
T09
X41700Y26600
X25950
Y36450
X41700
M30
