%FSLAX24Y24*%
%MOIN*%
G70*
G01*
G75*
G04 Layer_Color=32768*
%ADD10R,0.0236X0.0433*%
%ADD11R,0.0925X0.0197*%
%ADD12R,0.0984X0.0925*%
%ADD13R,0.0709X0.0472*%
%ADD14R,0.0610X0.0236*%
%ADD15O,0.0610X0.0236*%
%ADD16R,0.1102X0.1102*%
%ADD17O,0.0256X0.0098*%
%ADD18O,0.0098X0.0256*%
%ADD19R,0.0354X0.0252*%
%ADD20R,0.0354X0.0161*%
%ADD21O,0.0236X0.0610*%
%ADD22R,0.0236X0.0610*%
%ADD23R,0.0472X0.0709*%
%ADD24O,0.0276X0.0118*%
%ADD25R,0.0748X0.0354*%
%ADD26O,0.0827X0.0177*%
%ADD27R,0.0571X0.0217*%
%ADD28R,0.0571X0.0217*%
%ADD29R,0.0630X0.0276*%
%ADD30R,0.0374X0.0512*%
%ADD31R,0.0354X0.0276*%
%ADD32R,0.0276X0.0354*%
G04:AMPARAMS|DCode=33|XSize=35.4mil|YSize=27.6mil|CornerRadius=0mil|HoleSize=0mil|Usage=FLASHONLY|Rotation=225.000|XOffset=0mil|YOffset=0mil|HoleType=Round|Shape=Rectangle|*
%AMROTATEDRECTD33*
4,1,4,0.0028,0.0223,0.0223,0.0028,-0.0028,-0.0223,-0.0223,-0.0028,0.0028,0.0223,0.0*
%
%ADD33ROTATEDRECTD33*%

%ADD34R,0.0551X0.0433*%
%ADD35R,0.0453X0.0236*%
%ADD36R,0.0335X0.0315*%
%ADD37C,0.0250*%
%ADD38C,0.0100*%
%ADD39C,0.0200*%
%ADD40C,0.0150*%
%ADD41C,0.0300*%
%ADD42R,0.0500X0.0500*%
%ADD43C,0.0500*%
%ADD44R,0.0787X0.0315*%
%ADD45R,0.0394X0.0394*%
%ADD46C,0.0394*%
%ADD47C,0.0240*%
%ADD48C,0.0260*%
%ADD49C,0.0300*%
%ADD50O,0.0236X0.0866*%
%ADD51R,0.0886X0.0768*%
%ADD52R,0.0886X0.1004*%
%ADD53R,0.0906X0.0906*%
%ADD54R,0.0827X0.0906*%
%ADD55C,0.0098*%
%ADD56C,0.0236*%
%ADD57C,0.0039*%
%ADD58C,0.0079*%
%ADD59C,0.0047*%
%ADD60C,0.0063*%
%ADD61C,0.0060*%
%ADD62R,0.0316X0.0513*%
%ADD63R,0.1005X0.0277*%
%ADD64R,0.1064X0.1005*%
%ADD65R,0.0789X0.0552*%
%ADD66R,0.0690X0.0316*%
%ADD67O,0.0690X0.0316*%
%ADD68R,0.1182X0.1182*%
%ADD69O,0.0336X0.0178*%
%ADD70O,0.0178X0.0336*%
%ADD71R,0.0434X0.0332*%
%ADD72R,0.0434X0.0241*%
%ADD73O,0.0316X0.0690*%
%ADD74R,0.0316X0.0690*%
%ADD75R,0.0552X0.0789*%
%ADD76O,0.0356X0.0198*%
%ADD77R,0.0828X0.0434*%
%ADD78O,0.0907X0.0257*%
%ADD79R,0.0651X0.0297*%
%ADD80R,0.0651X0.0297*%
%ADD81R,0.0710X0.0356*%
%ADD82R,0.0454X0.0592*%
%ADD83R,0.0434X0.0356*%
%ADD84R,0.0356X0.0434*%
G04:AMPARAMS|DCode=85|XSize=43.4mil|YSize=35.6mil|CornerRadius=0mil|HoleSize=0mil|Usage=FLASHONLY|Rotation=225.000|XOffset=0mil|YOffset=0mil|HoleType=Round|Shape=Rectangle|*
%AMROTATEDRECTD85*
4,1,4,0.0028,0.0279,0.0279,0.0028,-0.0028,-0.0279,-0.0279,-0.0028,0.0028,0.0279,0.0*
%
%ADD85ROTATEDRECTD85*%

%ADD86R,0.0631X0.0513*%
%ADD87R,0.0533X0.0316*%
%ADD88R,0.0415X0.0395*%
%ADD89R,0.0580X0.0580*%
%ADD90C,0.0580*%
%ADD91C,0.0080*%
%ADD92R,0.0867X0.0395*%
%ADD93R,0.0474X0.0474*%
%ADD94C,0.0474*%
%ADD95C,0.0320*%
%ADD96C,0.0380*%
%ADD97O,0.0316X0.0946*%
%ADD98R,0.0966X0.0848*%
%ADD99R,0.0966X0.1084*%
%ADD100R,0.0986X0.0986*%
%ADD101R,0.0907X0.0986*%
%ADD102C,0.0340*%
%ADD103C,0.0080*%
%ADD104C,0.0000*%
%ADD105R,0.1181X0.0196*%
%ADD106R,0.1378X0.0334*%
%ADD107C,0.0020*%
D57*
X28833Y34078D02*
X29267D01*
X28833Y35022D02*
X29267D01*
Y34078D02*
Y35022D01*
X28833Y34078D02*
Y35022D01*
X29050Y34363D02*
Y34737D01*
X28863Y34550D02*
X29237D01*
X36263Y33850D02*
X36637D01*
X36450Y33663D02*
Y34037D01*
X36233Y33378D02*
Y34322D01*
X36667Y33378D02*
Y34322D01*
X36233D02*
X36667D01*
X36233Y33378D02*
X36667D01*
X31507Y28637D02*
X32893D01*
X31507Y27063D02*
X32893D01*
Y28637D01*
X31507Y27063D02*
Y28637D01*
X32200Y27653D02*
Y28047D01*
X32003Y27850D02*
X32397D01*
X37500Y35363D02*
Y35737D01*
X37313Y35550D02*
X37687D01*
X37028Y35333D02*
X37972D01*
X37028Y35767D02*
X37972D01*
X37028Y35333D02*
Y35767D01*
X37972Y35333D02*
Y35767D01*
X34753Y31200D02*
X35147D01*
X34950Y31003D02*
Y31397D01*
X35974Y30176D02*
Y32224D01*
X33926Y30176D02*
Y32224D01*
X35974D01*
X33926Y30176D02*
X35974D01*
X37823Y31020D02*
Y32280D01*
X39477Y31020D02*
Y32280D01*
X37823D02*
X39477D01*
X37823Y31020D02*
X39477D01*
X38453Y31650D02*
X38847D01*
X38650Y31453D02*
Y31847D01*
X31470Y28835D02*
Y33165D01*
X27730Y28835D02*
Y33165D01*
Y28835D02*
X31470D01*
X27730Y33165D02*
X31470D01*
X29403Y31000D02*
X29797D01*
X29600Y30803D02*
Y31197D01*
X35646Y34019D02*
Y36381D01*
X38954Y34019D02*
Y36381D01*
X35646D02*
X38954D01*
X35646Y34019D02*
X38954D01*
X37103Y35200D02*
X37497D01*
X37300Y35003D02*
Y35397D01*
X37653Y33800D02*
X38047D01*
X37850Y33603D02*
Y33997D01*
X38933Y32324D02*
Y35276D01*
X36767Y32324D02*
Y35276D01*
Y32324D02*
X38933D01*
X36767Y35276D02*
X38933D01*
X40153Y31350D02*
X40547D01*
X40350Y31153D02*
Y31547D01*
X39661Y30326D02*
Y32374D01*
X41039Y30326D02*
Y32374D01*
X39661D02*
X41039D01*
X39661Y30326D02*
X41039D01*
X34563Y32215D02*
X36137D01*
X34563Y35285D02*
X36137D01*
Y32215D02*
Y35285D01*
X34563Y32215D02*
Y35285D01*
X35350Y33553D02*
Y33947D01*
X35153Y33750D02*
X35547D01*
X40900Y34203D02*
Y34597D01*
X40703Y34400D02*
X41097D01*
X40339Y34105D02*
X41461D01*
X40339Y34695D02*
X41461D01*
Y34105D02*
Y34695D01*
X40339Y34105D02*
Y34695D01*
X40900Y33553D02*
Y33947D01*
X40703Y33750D02*
X41097D01*
X40339Y33455D02*
X41461D01*
X40339Y34045D02*
X41461D01*
Y33455D02*
Y34045D01*
X40339Y33455D02*
Y34045D01*
X27763Y33800D02*
X28137D01*
X27950Y33613D02*
Y33987D01*
X28167Y33328D02*
Y34272D01*
X27733Y33328D02*
Y34272D01*
X28167D01*
X27733Y33328D02*
X28167D01*
X31222Y33933D02*
Y34367D01*
X30278Y33933D02*
Y34367D01*
Y33933D02*
X31222D01*
X30278Y34367D02*
X31222D01*
X30563Y34150D02*
X30937D01*
X30750Y33963D02*
Y34337D01*
X33783Y28878D02*
X34217D01*
X33783Y29822D02*
X34217D01*
X33783Y28878D02*
Y29822D01*
X34217Y28878D02*
Y29822D01*
X34000Y29163D02*
Y29537D01*
X33813Y29350D02*
X34187D01*
X34283Y28878D02*
X34717D01*
X34283Y29822D02*
X34717D01*
X34283Y28878D02*
Y29822D01*
X34717Y28878D02*
Y29822D01*
X34500Y29163D02*
Y29537D01*
X34313Y29350D02*
X34687D01*
X39072Y35333D02*
Y35767D01*
X38128Y35333D02*
Y35767D01*
X39072D01*
X38128Y35333D02*
X39072D01*
X38413Y35550D02*
X38787D01*
X38600Y35363D02*
Y35737D01*
X39133Y35078D02*
X39567D01*
X39133Y36022D02*
X39567D01*
Y35078D02*
Y36022D01*
X39133Y35078D02*
Y36022D01*
X39350Y35363D02*
Y35737D01*
X39163Y35550D02*
X39537D01*
X39033Y35178D02*
X39467D01*
X39033Y36122D02*
X39467D01*
X39033Y35178D02*
Y36122D01*
X39467Y35178D02*
Y36122D01*
X39250Y35463D02*
Y35837D01*
X39063Y35650D02*
X39437D01*
X36781Y29563D02*
X37087Y29869D01*
X36113Y30231D02*
X36419Y30537D01*
X36113Y30231D02*
X36781Y29563D01*
X36419Y30537D02*
X37087Y29869D01*
X36468Y30182D02*
X36732Y29918D01*
X36468D02*
X36732Y30182D01*
X37131Y29913D02*
X37437Y30219D01*
X36463Y30581D02*
X36769Y30887D01*
X36463Y30581D02*
X37131Y29913D01*
X36769Y30887D02*
X37437Y30219D01*
X36818Y30532D02*
X37082Y30268D01*
X36818D02*
X37082Y30532D01*
X37481Y30263D02*
X37787Y30569D01*
X36813Y30931D02*
X37119Y31237D01*
X36813Y30931D02*
X37481Y30263D01*
X37119Y31237D02*
X37787Y30569D01*
X37168Y30882D02*
X37432Y30618D01*
X37168D02*
X37432Y30882D01*
X34683Y32428D02*
X35117D01*
X34683Y33372D02*
X35117D01*
X34683Y32428D02*
Y33372D01*
X35117Y32428D02*
Y33372D01*
X34900Y32713D02*
Y33087D01*
X34713Y32900D02*
X35087D01*
X35183Y32428D02*
X35617D01*
X35183Y33372D02*
X35617D01*
X35183Y32428D02*
Y33372D01*
X35617Y32428D02*
Y33372D01*
X35400Y32713D02*
Y33087D01*
X35213Y32900D02*
X35587D01*
X30278Y33233D02*
Y33667D01*
X31222Y33233D02*
Y33667D01*
X30278D02*
X31222D01*
X30278Y33233D02*
X31222D01*
X30563Y33450D02*
X30937D01*
X30750Y33263D02*
Y33637D01*
X25783Y28428D02*
X26217D01*
X25783Y29372D02*
X26217D01*
X25783Y28428D02*
Y29372D01*
X26217Y28428D02*
Y29372D01*
X26000Y28713D02*
Y29087D01*
X25813Y28900D02*
X26187D01*
X35378Y29533D02*
Y29967D01*
X36322Y29533D02*
Y29967D01*
X35378D02*
X36322D01*
X35378Y29533D02*
X36322D01*
X35663Y29750D02*
X36037D01*
X35850Y29563D02*
Y29937D01*
X26283Y28428D02*
X26717D01*
X26283Y29372D02*
X26717D01*
X26283Y28428D02*
Y29372D01*
X26717Y28428D02*
Y29372D01*
X26500Y28713D02*
Y29087D01*
X26313Y28900D02*
X26687D01*
X28735Y34361D02*
X29365D01*
X28735Y33239D02*
X29365D01*
Y34361D01*
X28735Y33239D02*
Y34361D01*
X29050Y33603D02*
Y33997D01*
X28853Y33800D02*
X29247D01*
X34935Y34789D02*
X35565D01*
X34935Y35911D02*
X35565D01*
X34935Y34789D02*
Y35911D01*
X35565Y34789D02*
Y35911D01*
X35250Y35153D02*
Y35547D01*
X35053Y35350D02*
X35447D01*
X34235Y34789D02*
X34865D01*
X34235Y35911D02*
X34865D01*
X34235Y34789D02*
Y35911D01*
X34865Y34789D02*
Y35911D01*
X34550Y35153D02*
Y35547D01*
X34353Y35350D02*
X34747D01*
X29435Y34361D02*
X30065D01*
X29435Y33239D02*
X30065D01*
Y34361D01*
X29435Y33239D02*
Y34361D01*
X29750Y33603D02*
Y33997D01*
X29553Y33800D02*
X29947D01*
X39685Y29861D02*
X40315D01*
X39685Y28739D02*
X40315D01*
X39685D02*
Y29861D01*
X40315Y28739D02*
Y29861D01*
X40000Y29103D02*
Y29497D01*
X39803Y29300D02*
X40197D01*
X31535Y32411D02*
X32165D01*
X31535Y31289D02*
X32165D01*
Y32411D01*
X31535Y31289D02*
Y32411D01*
X31850Y31653D02*
Y32047D01*
X31653Y31850D02*
X32047D01*
X36533Y28628D02*
X36967D01*
X36533Y29572D02*
X36967D01*
X36533Y28628D02*
Y29572D01*
X36967Y28628D02*
Y29572D01*
X36750Y28913D02*
Y29287D01*
X36563Y29100D02*
X36937D01*
X37033Y28628D02*
X37467D01*
X37033Y29572D02*
X37467D01*
X37033Y28628D02*
Y29572D01*
X37467Y28628D02*
Y29572D01*
X37250Y28913D02*
Y29287D01*
X37063Y29100D02*
X37437D01*
X37533Y28628D02*
X37967D01*
X37533Y29572D02*
X37967D01*
X37533Y28628D02*
Y29572D01*
X37967Y28628D02*
Y29572D01*
X37750Y28913D02*
Y29287D01*
X37563Y29100D02*
X37937D01*
X24783Y29372D02*
X25217D01*
X24783Y28428D02*
X25217D01*
Y29372D01*
X24783Y28428D02*
Y29372D01*
X25000Y28713D02*
Y29087D01*
X24813Y28900D02*
X25187D01*
X25283Y29372D02*
X25717D01*
X25283Y28428D02*
X25717D01*
Y29372D01*
X25283Y28428D02*
Y29372D01*
X25500Y28713D02*
Y29087D01*
X25313Y28900D02*
X25687D01*
X28332Y34561D02*
Y35939D01*
X29868Y34561D02*
Y35939D01*
X28332D02*
X29868D01*
X28332Y34561D02*
X29868D01*
X28903Y35250D02*
X29297D01*
X29100Y35053D02*
Y35447D01*
X30478Y28133D02*
Y28567D01*
X31422Y28133D02*
Y28567D01*
X30478D02*
X31422D01*
X30478Y28133D02*
X31422D01*
X30763Y28350D02*
X31137D01*
X30950Y28163D02*
Y28537D01*
X28243Y34272D02*
X28657D01*
X28243Y33328D02*
X28657D01*
Y34272D01*
X28243Y33328D02*
Y34272D01*
X28450Y33613D02*
Y33987D01*
X28263Y33800D02*
X28637D01*
X30793Y35372D02*
X31207D01*
X30793Y34428D02*
X31207D01*
Y35372D01*
X30793Y34428D02*
Y35372D01*
X31000Y34713D02*
Y35087D01*
X30813Y34900D02*
X31187D01*
X30293Y34428D02*
X30707D01*
X30293Y35372D02*
X30707D01*
X30293Y34428D02*
Y35372D01*
X30707Y34428D02*
Y35372D01*
X30500Y34713D02*
Y35087D01*
X30313Y34900D02*
X30687D01*
X31643Y30922D02*
X32057D01*
X31643Y29978D02*
X32057D01*
Y30922D01*
X31643Y29978D02*
Y30922D01*
X31850Y30263D02*
Y30637D01*
X31663Y30450D02*
X32037D01*
X30993Y27078D02*
X31407D01*
X30993Y28022D02*
X31407D01*
X30993Y27078D02*
Y28022D01*
X31407Y27078D02*
Y28022D01*
X31200Y27363D02*
Y27737D01*
X31013Y27550D02*
X31387D01*
X32993Y27128D02*
X33407D01*
X32993Y28072D02*
X33407D01*
X32993Y27128D02*
Y28072D01*
X33407Y27128D02*
Y28072D01*
X33200Y27413D02*
Y27787D01*
X33013Y27600D02*
X33387D01*
X36243Y35322D02*
X36657D01*
X36243Y34378D02*
X36657D01*
X36243D02*
Y35322D01*
X36657Y34378D02*
Y35322D01*
X36450Y34663D02*
Y35037D01*
X36263Y34850D02*
X36637D01*
X39543Y35178D02*
X39957D01*
X39543Y36122D02*
X39957D01*
X39543Y35178D02*
Y36122D01*
X39957Y35178D02*
Y36122D01*
X39750Y35463D02*
Y35837D01*
X39563Y35650D02*
X39937D01*
X38250Y28203D02*
Y28597D01*
X38053Y28400D02*
X38447D01*
X36882Y27140D02*
X39618D01*
X36882Y29660D02*
X39618D01*
X36882Y27140D02*
Y29660D01*
X39618Y27140D02*
Y29660D01*
X38250Y30803D02*
Y31197D01*
X38053Y31000D02*
X38447D01*
X36882Y32260D02*
X39618D01*
X36882Y29740D02*
X39618D01*
Y32260D01*
X36882Y29740D02*
Y32260D01*
D107*
X33198Y33100D02*
G03*
X33198Y33100I-98J0D01*
G01*
X32494Y33860D02*
X33706D01*
Y32340D02*
Y33860D01*
X32494Y32340D02*
X33706D01*
X32494D02*
Y33860D01*
X32962Y33100D02*
X33238D01*
X33100Y32962D02*
Y33238D01*
M02*
