%FSLAX24Y24*%
%MOIN*%
G70*
G01*
G75*
G04 Layer_Color=16711935*
%ADD10R,0.0236X0.0433*%
%ADD11R,0.0925X0.0197*%
%ADD12R,0.0984X0.0925*%
%ADD13R,0.0709X0.0472*%
%ADD14R,0.0610X0.0236*%
%ADD15O,0.0610X0.0236*%
%ADD16R,0.1102X0.1102*%
%ADD17O,0.0256X0.0098*%
%ADD18O,0.0098X0.0256*%
%ADD19R,0.0354X0.0252*%
%ADD20R,0.0354X0.0161*%
%ADD21O,0.0236X0.0610*%
%ADD22R,0.0236X0.0610*%
%ADD23R,0.0472X0.0709*%
%ADD24O,0.0276X0.0118*%
%ADD25R,0.0748X0.0354*%
%ADD26O,0.0827X0.0177*%
%ADD27R,0.0571X0.0217*%
%ADD28R,0.0571X0.0217*%
%ADD29R,0.0630X0.0276*%
%ADD30R,0.0374X0.0512*%
%ADD31R,0.0354X0.0276*%
%ADD32R,0.0276X0.0354*%
G04:AMPARAMS|DCode=33|XSize=35.4mil|YSize=27.6mil|CornerRadius=0mil|HoleSize=0mil|Usage=FLASHONLY|Rotation=225.000|XOffset=0mil|YOffset=0mil|HoleType=Round|Shape=Rectangle|*
%AMROTATEDRECTD33*
4,1,4,0.0028,0.0223,0.0223,0.0028,-0.0028,-0.0223,-0.0223,-0.0028,0.0028,0.0223,0.0*
%
%ADD33ROTATEDRECTD33*%

%ADD34R,0.0551X0.0433*%
%ADD35R,0.0453X0.0236*%
%ADD36R,0.0335X0.0315*%
%ADD37C,0.0250*%
%ADD38C,0.0100*%
%ADD39C,0.0200*%
%ADD40C,0.0150*%
%ADD41C,0.0300*%
%ADD42R,0.0500X0.0500*%
%ADD43C,0.0500*%
%ADD44R,0.0787X0.0315*%
%ADD45R,0.0394X0.0394*%
%ADD46C,0.0394*%
%ADD47C,0.0240*%
%ADD48C,0.0260*%
%ADD49C,0.0300*%
%ADD50O,0.0236X0.0866*%
%ADD51R,0.0886X0.0768*%
%ADD52R,0.0886X0.1004*%
%ADD53R,0.0906X0.0906*%
%ADD54R,0.0827X0.0906*%
%ADD55C,0.0098*%
%ADD56C,0.0236*%
%ADD57C,0.0039*%
%ADD58C,0.0079*%
%ADD59C,0.0047*%
%ADD60C,0.0063*%
%ADD61C,0.0060*%
%ADD62R,0.0316X0.0513*%
%ADD63R,0.1005X0.0277*%
%ADD64R,0.1064X0.1005*%
%ADD65R,0.0789X0.0552*%
%ADD66R,0.0690X0.0316*%
%ADD67O,0.0690X0.0316*%
%ADD68R,0.1182X0.1182*%
%ADD69O,0.0336X0.0178*%
%ADD70O,0.0178X0.0336*%
%ADD71R,0.0434X0.0332*%
%ADD72R,0.0434X0.0241*%
%ADD73O,0.0316X0.0690*%
%ADD74R,0.0316X0.0690*%
%ADD75R,0.0552X0.0789*%
%ADD76O,0.0356X0.0198*%
%ADD77R,0.0828X0.0434*%
%ADD78O,0.0907X0.0257*%
%ADD79R,0.0651X0.0297*%
%ADD80R,0.0651X0.0297*%
%ADD81R,0.0710X0.0356*%
%ADD82R,0.0454X0.0592*%
%ADD83R,0.0434X0.0356*%
%ADD84R,0.0356X0.0434*%
G04:AMPARAMS|DCode=85|XSize=43.4mil|YSize=35.6mil|CornerRadius=0mil|HoleSize=0mil|Usage=FLASHONLY|Rotation=225.000|XOffset=0mil|YOffset=0mil|HoleType=Round|Shape=Rectangle|*
%AMROTATEDRECTD85*
4,1,4,0.0028,0.0279,0.0279,0.0028,-0.0028,-0.0279,-0.0279,-0.0028,0.0028,0.0279,0.0*
%
%ADD85ROTATEDRECTD85*%

%ADD86R,0.0631X0.0513*%
%ADD87R,0.0533X0.0316*%
%ADD88R,0.0415X0.0395*%
%ADD89R,0.0580X0.0580*%
%ADD90C,0.0580*%
%ADD91C,0.0080*%
%ADD92R,0.0867X0.0395*%
%ADD93R,0.0474X0.0474*%
%ADD94C,0.0474*%
%ADD95C,0.0320*%
%ADD96C,0.0380*%
%ADD97O,0.0316X0.0946*%
%ADD98R,0.0966X0.0848*%
%ADD99R,0.0966X0.1084*%
%ADD100R,0.0986X0.0986*%
%ADD101R,0.0907X0.0986*%
%ADD102C,0.0340*%
%ADD103C,0.0080*%
%ADD104C,0.0000*%
%ADD105R,0.1181X0.0196*%
%ADD106R,0.1378X0.0334*%
D57*
X34733Y30787D02*
G03*
X34733Y30787I-197J0D01*
G01*
X30545Y29287D02*
G03*
X30545Y29287I-197J0D01*
G01*
X37064Y35830D02*
G03*
X37064Y35830I-197J0D01*
G01*
X37437Y34211D02*
G03*
X37437Y34211I-197J0D01*
G01*
X28863Y34215D02*
X29237D01*
X28863Y34885D02*
X29237D01*
Y34215D02*
Y34885D01*
X28863Y34215D02*
Y34885D01*
X36263Y33515D02*
Y34185D01*
X36637Y33515D02*
Y34185D01*
X36263D02*
X36637D01*
X36263Y33515D02*
X36637D01*
X31606Y28194D02*
X32794D01*
X31606Y27506D02*
X32794D01*
Y28194D01*
X31606Y27506D02*
Y28194D01*
X37165Y35363D02*
X37835D01*
X37165Y35737D02*
X37835D01*
X37165Y35363D02*
Y35737D01*
X37835Y35363D02*
Y35737D01*
X23454Y30974D02*
X26840D01*
Y34006D01*
X23454D02*
X26840D01*
X23454Y30974D02*
Y34006D01*
X35737Y30413D02*
Y31987D01*
X34163Y30413D02*
Y31987D01*
X35737D01*
X34163Y30413D02*
X35737D01*
X38050Y31246D02*
Y32054D01*
X39250Y31246D02*
Y32054D01*
X38050D02*
X39250D01*
X38050Y31246D02*
X39250D01*
X30702Y28933D02*
Y33067D01*
X28498Y28933D02*
Y33067D01*
Y28933D02*
X30702D01*
X28498Y33067D02*
X30702D01*
X36513Y34216D02*
Y36184D01*
X38087Y34216D02*
Y36184D01*
X36513D02*
X38087D01*
X36513Y34216D02*
X38087D01*
X38834Y33015D02*
Y34585D01*
X36866Y33015D02*
Y34585D01*
Y33015D02*
X38834D01*
X36866Y34585D02*
X38834D01*
X39759Y30622D02*
Y32078D01*
X40941Y30622D02*
Y32078D01*
X39759D02*
X40941D01*
X39759Y30622D02*
X40941D01*
X34661Y32510D02*
X36039D01*
X34661Y34990D02*
X36039D01*
Y32510D02*
Y34990D01*
X34661Y32510D02*
Y34990D01*
X40477Y34124D02*
X41323D01*
X40477Y34676D02*
X41323D01*
Y34124D02*
Y34676D01*
X40477Y34124D02*
Y34676D01*
Y33474D02*
X41323D01*
X40477Y34026D02*
X41323D01*
Y33474D02*
Y34026D01*
X40477Y33474D02*
Y34026D01*
X28137Y33465D02*
Y34135D01*
X27763Y33465D02*
Y34135D01*
X28137D01*
X27763Y33465D02*
X28137D01*
X31085Y33963D02*
Y34337D01*
X30415Y33963D02*
Y34337D01*
Y33963D02*
X31085D01*
X30415Y34337D02*
X31085D01*
X33813Y29015D02*
X34187D01*
X33813Y29685D02*
X34187D01*
X33813Y29015D02*
Y29685D01*
X34187Y29015D02*
Y29685D01*
X34313Y29015D02*
X34687D01*
X34313Y29685D02*
X34687D01*
X34313Y29015D02*
Y29685D01*
X34687Y29015D02*
Y29685D01*
X38935Y35363D02*
Y35737D01*
X38265Y35363D02*
Y35737D01*
X38935D01*
X38265Y35363D02*
X38935D01*
X39163Y35215D02*
X39537D01*
X39163Y35885D02*
X39537D01*
Y35215D02*
Y35885D01*
X39163Y35215D02*
Y35885D01*
X39063Y35315D02*
X39437D01*
X39063Y35985D02*
X39437D01*
X39063Y35315D02*
Y35985D01*
X39437Y35315D02*
Y35985D01*
X36704Y29681D02*
X36969Y29946D01*
X36231Y30154D02*
X36496Y30419D01*
X36231Y30154D02*
X36704Y29681D01*
X36496Y30419D02*
X36969Y29946D01*
X37054Y30031D02*
X37319Y30296D01*
X36581Y30504D02*
X36846Y30769D01*
X36581Y30504D02*
X37054Y30031D01*
X36846Y30769D02*
X37319Y30296D01*
X37404Y30381D02*
X37669Y30646D01*
X36931Y30854D02*
X37196Y31119D01*
X36931Y30854D02*
X37404Y30381D01*
X37196Y31119D02*
X37669Y30646D01*
X34713Y32565D02*
X35087D01*
X34713Y33235D02*
X35087D01*
X34713Y32565D02*
Y33235D01*
X35087Y32565D02*
Y33235D01*
X35213Y32565D02*
X35587D01*
X35213Y33235D02*
X35587D01*
X35213Y32565D02*
Y33235D01*
X35587Y32565D02*
Y33235D01*
X30415Y33263D02*
Y33637D01*
X31085Y33263D02*
Y33637D01*
X30415D02*
X31085D01*
X30415Y33263D02*
X31085D01*
X25813Y28565D02*
X26187D01*
X25813Y29235D02*
X26187D01*
X25813Y28565D02*
Y29235D01*
X26187Y28565D02*
Y29235D01*
X35515Y29563D02*
Y29937D01*
X36185Y29563D02*
Y29937D01*
X35515D02*
X36185D01*
X35515Y29563D02*
X36185D01*
X26313Y28565D02*
X26687D01*
X26313Y29235D02*
X26687D01*
X26313Y28565D02*
Y29235D01*
X26687Y28565D02*
Y29235D01*
X28765Y34233D02*
X29335D01*
X28765Y33367D02*
X29335D01*
Y34233D01*
X28765Y33367D02*
Y34233D01*
X34965Y34917D02*
X35535D01*
X34965Y35783D02*
X35535D01*
X34965Y34917D02*
Y35783D01*
X35535Y34917D02*
Y35783D01*
X34265Y34917D02*
X34835D01*
X34265Y35783D02*
X34835D01*
X34265Y34917D02*
Y35783D01*
X34835Y34917D02*
Y35783D01*
X29465Y34233D02*
X30035D01*
X29465Y33367D02*
X30035D01*
Y34233D01*
X29465Y33367D02*
Y34233D01*
X39715Y29733D02*
X40285D01*
X39715Y28867D02*
X40285D01*
X39715D02*
Y29733D01*
X40285Y28867D02*
Y29733D01*
X31565Y32283D02*
X32135D01*
X31565Y31417D02*
X32135D01*
Y32283D01*
X31565Y31417D02*
Y32283D01*
X36563Y28765D02*
X36937D01*
X36563Y29435D02*
X36937D01*
X36563Y28765D02*
Y29435D01*
X36937Y28765D02*
Y29435D01*
X37063Y28765D02*
X37437D01*
X37063Y29435D02*
X37437D01*
X37063Y28765D02*
Y29435D01*
X37437Y28765D02*
Y29435D01*
X37563Y28765D02*
X37937D01*
X37563Y29435D02*
X37937D01*
X37563Y28765D02*
Y29435D01*
X37937Y28765D02*
Y29435D01*
X24813Y29235D02*
X25187D01*
X24813Y28565D02*
X25187D01*
Y29235D01*
X24813Y28565D02*
Y29235D01*
X25313D02*
X25687D01*
X25313Y28565D02*
X25687D01*
Y29235D01*
X25313Y28565D02*
Y29235D01*
X28824Y34659D02*
Y35841D01*
X29376Y34659D02*
Y35841D01*
X28824D02*
X29376D01*
X28824Y34659D02*
X29376D01*
X30615Y28163D02*
Y28537D01*
X31285Y28163D02*
Y28537D01*
X30615D02*
X31285D01*
X30615Y28163D02*
X31285D01*
X28263Y34144D02*
X28637D01*
X28263Y33456D02*
X28637D01*
Y34144D01*
X28263Y33456D02*
Y34144D01*
X30813Y35244D02*
X31187D01*
X30813Y34556D02*
X31187D01*
Y35244D01*
X30813Y34556D02*
Y35244D01*
X30313Y34556D02*
X30687D01*
X30313Y35244D02*
X30687D01*
X30313Y34556D02*
Y35244D01*
X30687Y34556D02*
Y35244D01*
X31663Y30794D02*
X32037D01*
X31663Y30106D02*
X32037D01*
Y30794D01*
X31663Y30106D02*
Y30794D01*
X31013Y27206D02*
X31387D01*
X31013Y27894D02*
X31387D01*
X31013Y27206D02*
Y27894D01*
X31387Y27206D02*
Y27894D01*
X33013Y27256D02*
X33387D01*
X33013Y27944D02*
X33387D01*
X33013Y27256D02*
Y27944D01*
X33387Y27256D02*
Y27944D01*
X36263Y35194D02*
X36637D01*
X36263Y34506D02*
X36637D01*
X36263D02*
Y35194D01*
X36637Y34506D02*
Y35194D01*
X39563Y35306D02*
X39937D01*
X39563Y35994D02*
X39937D01*
X39563Y35306D02*
Y35994D01*
X39937Y35306D02*
Y35994D01*
X37030Y27180D02*
X39470D01*
X37030Y29620D02*
X39470D01*
X37030Y27180D02*
Y29620D01*
X39470Y27180D02*
Y29620D01*
X37030Y32220D02*
X39470D01*
X37030Y29780D02*
X39470D01*
Y32220D01*
X37030Y29780D02*
Y32220D01*
D59*
X32773Y32439D02*
Y33544D01*
X32991Y33761D01*
X33427D01*
Y32439D02*
Y33761D01*
X32773Y32439D02*
X33427D01*
D104*
X32775Y33759D02*
X33425D01*
Y32441D02*
Y33759D01*
X32775Y32441D02*
X33425D01*
X32775D02*
Y33759D01*
D105*
X40350Y30720D02*
D03*
D106*
X35350Y32677D02*
D03*
M02*
