%FSLAX24Y24*%
%MOIN*%
G70*
G01*
G75*
G04 Layer_Color=32896*
%ADD10R,0.0236X0.0433*%
%ADD11R,0.0925X0.0197*%
%ADD12R,0.0984X0.0925*%
%ADD13R,0.0709X0.0472*%
%ADD14R,0.0610X0.0236*%
%ADD15O,0.0610X0.0236*%
%ADD16R,0.1102X0.1102*%
%ADD17O,0.0256X0.0098*%
%ADD18O,0.0098X0.0256*%
%ADD19R,0.0354X0.0252*%
%ADD20R,0.0354X0.0161*%
%ADD21O,0.0236X0.0610*%
%ADD22R,0.0236X0.0610*%
%ADD23R,0.0472X0.0709*%
%ADD24O,0.0276X0.0118*%
%ADD25R,0.0748X0.0354*%
%ADD26O,0.0827X0.0177*%
%ADD27R,0.0571X0.0217*%
%ADD28R,0.0571X0.0217*%
%ADD29R,0.0630X0.0276*%
%ADD30R,0.0374X0.0512*%
%ADD31R,0.0354X0.0276*%
%ADD32R,0.0276X0.0354*%
G04:AMPARAMS|DCode=33|XSize=35.4mil|YSize=27.6mil|CornerRadius=0mil|HoleSize=0mil|Usage=FLASHONLY|Rotation=225.000|XOffset=0mil|YOffset=0mil|HoleType=Round|Shape=Rectangle|*
%AMROTATEDRECTD33*
4,1,4,0.0028,0.0223,0.0223,0.0028,-0.0028,-0.0223,-0.0223,-0.0028,0.0028,0.0223,0.0*
%
%ADD33ROTATEDRECTD33*%

%ADD34R,0.0551X0.0433*%
%ADD35R,0.0453X0.0236*%
%ADD36R,0.0335X0.0315*%
%ADD37C,0.0250*%
%ADD38C,0.0100*%
%ADD39C,0.0200*%
%ADD40C,0.0150*%
%ADD41C,0.0300*%
%ADD42R,0.0500X0.0500*%
%ADD43C,0.0500*%
%ADD44R,0.0787X0.0315*%
%ADD45R,0.0394X0.0394*%
%ADD46C,0.0394*%
%ADD47C,0.0240*%
%ADD48C,0.0260*%
%ADD49C,0.0300*%
%ADD50O,0.0236X0.0866*%
%ADD51R,0.0886X0.0768*%
%ADD52R,0.0886X0.1004*%
%ADD53R,0.0906X0.0906*%
%ADD54R,0.0827X0.0906*%
%ADD55C,0.0098*%
%ADD56C,0.0236*%
%ADD57C,0.0039*%
%ADD58C,0.0079*%
%ADD59C,0.0047*%
%ADD60C,0.0063*%
%ADD61C,0.0060*%
%ADD62R,0.0316X0.0513*%
%ADD63R,0.1005X0.0277*%
%ADD64R,0.1064X0.1005*%
%ADD65R,0.0789X0.0552*%
%ADD66R,0.0690X0.0316*%
%ADD67O,0.0690X0.0316*%
%ADD68R,0.1182X0.1182*%
%ADD69O,0.0336X0.0178*%
%ADD70O,0.0178X0.0336*%
%ADD71R,0.0434X0.0332*%
%ADD72R,0.0434X0.0241*%
%ADD73O,0.0316X0.0690*%
%ADD74R,0.0316X0.0690*%
%ADD75R,0.0552X0.0789*%
%ADD76O,0.0356X0.0198*%
%ADD77R,0.0828X0.0434*%
%ADD78O,0.0907X0.0257*%
%ADD79R,0.0651X0.0297*%
%ADD80R,0.0651X0.0297*%
%ADD81R,0.0710X0.0356*%
%ADD82R,0.0454X0.0592*%
%ADD83R,0.0434X0.0356*%
%ADD84R,0.0356X0.0434*%
G04:AMPARAMS|DCode=85|XSize=43.4mil|YSize=35.6mil|CornerRadius=0mil|HoleSize=0mil|Usage=FLASHONLY|Rotation=225.000|XOffset=0mil|YOffset=0mil|HoleType=Round|Shape=Rectangle|*
%AMROTATEDRECTD85*
4,1,4,0.0028,0.0279,0.0279,0.0028,-0.0028,-0.0279,-0.0279,-0.0028,0.0028,0.0279,0.0*
%
%ADD85ROTATEDRECTD85*%

%ADD86R,0.0631X0.0513*%
%ADD87R,0.0533X0.0316*%
%ADD88R,0.0415X0.0395*%
%ADD89R,0.0580X0.0580*%
%ADD90C,0.0580*%
%ADD91C,0.0080*%
%ADD92R,0.0867X0.0395*%
%ADD93R,0.0474X0.0474*%
%ADD94C,0.0474*%
%ADD95C,0.0320*%
%ADD96C,0.0380*%
%ADD97O,0.0316X0.0946*%
%ADD98R,0.0966X0.0848*%
%ADD99R,0.0966X0.1084*%
%ADD100R,0.0986X0.0986*%
%ADD101R,0.0907X0.0986*%
%ADD102C,0.0340*%
%ADD103C,0.0080*%
G36*
X29188Y29638D02*
X29191Y29635D01*
X29194Y29632D01*
Y29629D01*
X29200Y29605D01*
Y29588D01*
X29238Y29403D01*
Y29397D01*
X29241Y29394D01*
X29247D01*
X29396Y29330D01*
X29402Y29327D01*
X29408D01*
X29411Y29330D01*
X29566Y29435D01*
X29578Y29444D01*
X29581Y29450D01*
X29584D01*
X29599Y29459D01*
X29604Y29462D01*
X29610D01*
X29613Y29459D01*
X29628Y29444D01*
X29642Y29430D01*
X29683Y29389D01*
X29698Y29374D01*
X29745Y29330D01*
X29760Y29318D01*
X29774Y29304D01*
Y29295D01*
X29777Y29292D01*
X29774Y29289D01*
Y29286D01*
X29760Y29268D01*
X29757Y29263D01*
Y29260D01*
X29754Y29254D01*
X29751Y29251D01*
X29645Y29102D01*
Y29096D01*
Y29093D01*
Y29090D01*
Y29087D01*
X29713Y28932D01*
X29716Y28926D01*
X29719Y28923D01*
X29724D01*
X29900Y28888D01*
X29906Y28885D01*
X29918D01*
X29941Y28879D01*
X29947D01*
X29950Y28876D01*
Y28873D01*
Y28870D01*
Y28847D01*
Y28826D01*
Y28765D01*
Y28747D01*
Y28686D01*
Y28668D01*
Y28645D01*
X29947Y28639D01*
X29944Y28636D01*
X29941D01*
X29918Y28630D01*
X29912D01*
X29909Y28627D01*
X29900D01*
X29897Y28624D01*
X29730Y28598D01*
X29727Y28592D01*
X29724Y28589D01*
X29719Y28586D01*
X29716Y28583D01*
X29648Y28419D01*
Y28404D01*
X29748Y28264D01*
X29754Y28255D01*
X29757Y28252D01*
X29760Y28246D01*
Y28243D01*
X29771Y28229D01*
X29774Y28226D01*
Y28223D01*
Y28220D01*
X29771Y28217D01*
Y28214D01*
X29760Y28196D01*
X29745Y28188D01*
X29698Y28141D01*
X29683Y28126D01*
X29640Y28085D01*
X29625Y28070D01*
X29613Y28056D01*
X29607Y28053D01*
X29604D01*
X29599Y28056D01*
X29584Y28065D01*
X29575Y28070D01*
X29569Y28076D01*
X29566Y28079D01*
X29429Y28173D01*
X29423Y28176D01*
X29411D01*
X29408Y28173D01*
X29382Y28158D01*
X29376Y28155D01*
X29373Y28153D01*
X29367Y28150D01*
X29364D01*
X29335Y28132D01*
X29329D01*
X29323Y28135D01*
X29320D01*
X29311Y28170D01*
X29309Y28176D01*
Y28179D01*
X29306Y28185D01*
X29303Y28188D01*
X29186Y28475D01*
X29183Y28481D01*
Y28483D01*
X29177Y28492D01*
X29174Y28495D01*
X29165Y28513D01*
Y28519D01*
X29168Y28522D01*
Y28527D01*
X29171D01*
X29188Y28539D01*
X29194Y28542D01*
X29197Y28545D01*
X29200Y28548D01*
X29203Y28551D01*
X29238Y28577D01*
X29262Y28607D01*
X29273Y28618D01*
X29279Y28627D01*
X29282Y28633D01*
X29285Y28636D01*
X29303Y28677D01*
X29311Y28715D01*
Y28732D01*
X29314Y28744D01*
Y28753D01*
Y28756D01*
X29311Y28791D01*
X29306Y28820D01*
X29303Y28832D01*
X29300Y28841D01*
X29297Y28847D01*
Y28850D01*
X29282Y28882D01*
X29265Y28908D01*
X29253Y28923D01*
X29247Y28929D01*
X29221Y28952D01*
X29194Y28970D01*
X29174Y28978D01*
X29171Y28981D01*
X29168D01*
X29133Y28993D01*
X29104Y28999D01*
X29089Y29002D01*
X29071D01*
X29036Y28999D01*
X29007Y28993D01*
X28995Y28987D01*
X28986Y28984D01*
X28981Y28981D01*
X28978D01*
X28948Y28967D01*
X28922Y28949D01*
X28907Y28935D01*
X28901Y28932D01*
Y28929D01*
X28878Y28902D01*
X28860Y28876D01*
X28855Y28867D01*
X28852Y28858D01*
X28849Y28853D01*
Y28850D01*
X28837Y28817D01*
X28831Y28785D01*
X28828Y28773D01*
Y28765D01*
Y28759D01*
Y28756D01*
Y28732D01*
X28834Y28709D01*
X28837Y28689D01*
X28843Y28671D01*
X28849Y28656D01*
X28855Y28645D01*
X28857Y28639D01*
X28860Y28636D01*
X28887Y28601D01*
X28913Y28574D01*
X28925Y28563D01*
X28934Y28557D01*
X28939Y28554D01*
X28942Y28551D01*
X28951Y28539D01*
X28972Y28527D01*
X28975Y28524D01*
X28978Y28522D01*
X28975Y28516D01*
Y28513D01*
X28966Y28495D01*
X28963Y28486D01*
Y28483D01*
X28960Y28478D01*
Y28475D01*
X28837Y28188D01*
Y28182D01*
Y28179D01*
X28834Y28173D01*
Y28170D01*
X28819Y28135D01*
X28816Y28132D01*
X28805D01*
X28778Y28150D01*
X28770Y28153D01*
X28767D01*
X28761Y28155D01*
X28758Y28158D01*
X28732Y28173D01*
X28726Y28176D01*
X28720D01*
X28717Y28173D01*
X28579Y28079D01*
X28573Y28076D01*
X28570Y28073D01*
X28565Y28068D01*
X28562Y28065D01*
X28547Y28056D01*
X28538Y28053D01*
X28532D01*
X28529Y28056D01*
X28512Y28070D01*
X28500Y28085D01*
X28459Y28126D01*
X28444Y28141D01*
X28401Y28188D01*
X28386Y28196D01*
X28371Y28214D01*
X28368Y28217D01*
Y28220D01*
Y28226D01*
X28371Y28229D01*
X28383Y28243D01*
X28386Y28249D01*
X28389Y28252D01*
X28392Y28261D01*
X28395Y28264D01*
X28491Y28404D01*
X28494Y28410D01*
Y28413D01*
X28491Y28419D01*
X28424Y28583D01*
X28421Y28586D01*
Y28589D01*
X28418Y28595D01*
X28415Y28598D01*
X28239Y28624D01*
X28234Y28627D01*
X28231D01*
X28225Y28630D01*
X28222D01*
X28204Y28636D01*
X28198Y28639D01*
X28193Y28642D01*
Y28645D01*
Y28668D01*
Y28686D01*
Y28747D01*
Y28765D01*
Y28826D01*
Y28847D01*
Y28870D01*
X28196Y28876D01*
X28198Y28879D01*
X28204D01*
X28222Y28885D01*
X28231D01*
X28239Y28888D01*
X28242D01*
X28418Y28923D01*
X28424Y28926D01*
X28430Y28929D01*
X28433Y28932D01*
X28500Y29087D01*
Y29090D01*
Y29093D01*
X28497Y29099D01*
X28494Y29102D01*
X28395Y29251D01*
X28392Y29257D01*
X28389Y29260D01*
X28386Y29266D01*
X28383Y29268D01*
X28371Y29286D01*
X28368Y29292D01*
Y29298D01*
X28371Y29304D01*
X28386Y29318D01*
X28401Y29330D01*
X28442Y29374D01*
X28459Y29389D01*
X28500Y29430D01*
X28512Y29444D01*
X28529Y29459D01*
X28535Y29465D01*
X28541D01*
X28544Y29462D01*
X28547Y29459D01*
X28562Y29450D01*
X28568Y29444D01*
X28570Y29441D01*
X28576Y29438D01*
X28579Y29435D01*
X28729Y29330D01*
X28737Y29327D01*
X28743D01*
X28746Y29330D01*
X28749D01*
X28893Y29394D01*
X28901Y29397D01*
X28904Y29400D01*
X28907Y29403D01*
X28939Y29588D01*
Y29594D01*
X28942Y29597D01*
X28945Y29602D01*
Y29605D01*
X28951Y29629D01*
Y29632D01*
X28954Y29635D01*
X28957Y29640D01*
X29186D01*
X29188Y29638D01*
D02*
G37*
%LPC*%
G36*
X29153Y29594D02*
X28992D01*
X28951Y29356D01*
X28907Y29345D01*
X28872Y29336D01*
X28857Y29330D01*
X28846Y29324D01*
X28840Y29321D01*
X28837D01*
X28799Y29304D01*
X28767Y29286D01*
X28752Y29280D01*
X28743Y29274D01*
X28737Y29268D01*
X28734D01*
X28541Y29403D01*
X28486Y29348D01*
X28430Y29289D01*
X28562Y29096D01*
X28538Y29058D01*
X28521Y29025D01*
X28515Y29014D01*
X28509Y29002D01*
X28506Y28996D01*
Y28993D01*
X28488Y28952D01*
X28477Y28917D01*
X28471Y28902D01*
X28468Y28891D01*
X28465Y28882D01*
Y28879D01*
X28239Y28838D01*
Y28756D01*
Y28677D01*
X28465Y28636D01*
X28477Y28592D01*
X28486Y28554D01*
X28491Y28536D01*
X28497Y28524D01*
X28500Y28519D01*
Y28516D01*
X28518Y28475D01*
X28535Y28442D01*
X28544Y28428D01*
X28550Y28419D01*
X28553Y28413D01*
X28556Y28410D01*
X28430Y28226D01*
X28486Y28170D01*
X28541Y28112D01*
X28720Y28235D01*
X28732Y28226D01*
X28743Y28220D01*
X28752Y28217D01*
X28755Y28214D01*
X28767Y28208D01*
X28778Y28202D01*
X28787Y28199D01*
X28790Y28196D01*
X28919Y28501D01*
X28875Y28536D01*
X28857Y28554D01*
X28843Y28568D01*
X28831Y28583D01*
X28822Y28595D01*
X28819Y28604D01*
X28816Y28607D01*
X28802Y28633D01*
X28793Y28659D01*
X28784Y28683D01*
X28781Y28706D01*
X28778Y28727D01*
X28775Y28741D01*
Y28753D01*
Y28756D01*
X28778Y28800D01*
X28787Y28835D01*
X28790Y28850D01*
X28796Y28861D01*
X28799Y28867D01*
Y28870D01*
X28819Y28908D01*
X28840Y28937D01*
X28849Y28949D01*
X28857Y28958D01*
X28860Y28961D01*
X28863Y28964D01*
X28896Y28990D01*
X28928Y29011D01*
X28939Y29019D01*
X28951Y29025D01*
X28957Y29028D01*
X28960D01*
X28998Y29043D01*
X29036Y29052D01*
X29051Y29055D01*
X29071D01*
X29115Y29052D01*
X29153Y29043D01*
X29168Y29037D01*
X29180Y29031D01*
X29186Y29028D01*
X29188D01*
X29227Y29008D01*
X29256Y28987D01*
X29268Y28978D01*
X29273Y28970D01*
X29279Y28967D01*
X29282Y28964D01*
X29309Y28935D01*
X29329Y28902D01*
X29338Y28891D01*
X29341Y28879D01*
X29347Y28873D01*
Y28870D01*
X29358Y28829D01*
X29364Y28794D01*
X29367Y28779D01*
Y28768D01*
Y28759D01*
Y28756D01*
X29364Y28727D01*
X29361Y28697D01*
X29355Y28674D01*
X29347Y28650D01*
X29341Y28633D01*
X29335Y28618D01*
X29332Y28609D01*
X29329Y28607D01*
X29297Y28563D01*
X29279Y28545D01*
X29265Y28530D01*
X29250Y28519D01*
X29238Y28510D01*
X29229Y28504D01*
X29227Y28501D01*
X29355Y28196D01*
X29379Y28208D01*
X29399Y28220D01*
X29414Y28232D01*
X29420Y28235D01*
X29604Y28112D01*
X29660Y28170D01*
X29716Y28226D01*
X29590Y28410D01*
X29613Y28445D01*
X29631Y28481D01*
X29637Y28495D01*
X29642Y28507D01*
X29645Y28513D01*
Y28516D01*
X29660Y28560D01*
X29672Y28598D01*
X29675Y28612D01*
X29678Y28624D01*
X29681Y28633D01*
Y28636D01*
X29897Y28677D01*
Y28756D01*
Y28838D01*
X29675Y28879D01*
X29663Y28923D01*
X29651Y28958D01*
X29648Y28973D01*
X29642Y28984D01*
X29640Y28990D01*
Y28993D01*
X29622Y29031D01*
X29601Y29063D01*
X29596Y29078D01*
X29590Y29087D01*
X29584Y29093D01*
Y29096D01*
X29716Y29289D01*
X29660Y29348D01*
X29604Y29403D01*
X29405Y29268D01*
X29370Y29289D01*
X29338Y29307D01*
X29326Y29312D01*
X29314Y29318D01*
X29309Y29321D01*
X29306D01*
X29265Y29336D01*
X29229Y29348D01*
X29215Y29350D01*
X29203Y29353D01*
X29197Y29356D01*
X29194D01*
X29153Y29594D01*
D02*
G37*
%LPD*%
D38*
X32452Y34587D02*
Y34764D01*
X32648D01*
Y34587D02*
Y34764D01*
X24128Y28248D02*
X27672D01*
X24128D02*
Y31594D01*
X26687D01*
X27672Y28839D02*
Y29626D01*
Y30315D02*
Y31201D01*
X24424Y30413D02*
X26097D01*
X24424D02*
Y30807D01*
X26097D01*
D55*
X36815Y34745D02*
G03*
X36815Y34745I-49J0D01*
G01*
X41049Y30346D02*
G03*
X41049Y30346I-49J0D01*
G01*
X36059Y32234D02*
G03*
X36059Y32234I-49J0D01*
G01*
D56*
X37378Y33761D02*
G03*
X37378Y33761I-118J0D01*
G01*
D57*
X29808Y34050D02*
G03*
X29808Y34050I-20J0D01*
G01*
D58*
X31396Y34579D02*
X31408Y34567D01*
X31566D01*
X33711D02*
X33716Y34572D01*
X33534Y34567D02*
X33711D01*
X31566D02*
X33534D01*
X29188Y34491D02*
Y34609D01*
X28912Y34491D02*
Y34609D01*
X29946Y35241D02*
Y35260D01*
X30654Y35241D02*
Y35260D01*
X29946Y34040D02*
Y34059D01*
X30654Y34040D02*
Y34059D01*
X29946Y34040D02*
X30654D01*
X29946Y35260D02*
X30654D01*
X36312Y33791D02*
Y33909D01*
X36588Y33791D02*
Y33909D01*
X37441Y35412D02*
X37559D01*
X37441Y35688D02*
X37559D01*
X38834Y33446D02*
Y34154D01*
X36866Y33446D02*
Y34154D01*
Y33446D02*
X38834D01*
X36866Y34154D02*
X38834D01*
X39759Y30602D02*
Y32098D01*
X40941Y30602D02*
Y32098D01*
X36039Y32490D02*
Y35010D01*
X34661Y32490D02*
Y35010D01*
X35950Y32490D02*
X36039D01*
X35950Y35010D02*
X36039D01*
X34661Y32490D02*
X34750D01*
X34661Y35010D02*
X34750D01*
X41140Y31122D02*
Y32087D01*
X42360Y31122D02*
Y32087D01*
Y29154D02*
Y30178D01*
X41140Y29154D02*
Y30178D01*
X41317Y32264D02*
X42183D01*
X42360Y32087D01*
X41140D02*
X41317Y32264D01*
X41140Y29154D02*
X42360D01*
X38541Y35688D02*
X38659D01*
X38541Y35412D02*
X38659D01*
X39488Y35491D02*
Y35609D01*
X39212Y35491D02*
Y35609D01*
X36322Y34811D02*
Y34889D01*
X36578Y34811D02*
Y34889D01*
X37030Y27180D02*
Y27790D01*
X39470Y27180D02*
Y27790D01*
X37030Y29010D02*
Y29620D01*
X39470Y29010D02*
Y29620D01*
X37030Y27180D02*
X39470D01*
X37030Y29620D02*
X39470D01*
X39470Y31610D02*
Y32220D01*
X37030Y31610D02*
Y32220D01*
X39470Y29780D02*
Y30390D01*
X37030Y29780D02*
Y30390D01*
Y32220D02*
X39470D01*
X37030Y29780D02*
X39470D01*
D61*
X31000Y35720D02*
Y35400D01*
X30840D01*
X30787Y35453D01*
Y35667D01*
X30840Y35720D01*
X31000D01*
X30680D02*
X30467D01*
Y35667D01*
X30680Y35453D01*
Y35400D01*
X36333Y33087D02*
X36280Y33140D01*
Y33247D01*
X36333Y33300D01*
X36387D01*
X36440Y33247D01*
Y33140D01*
X36493Y33087D01*
X36547D01*
X36600Y33140D01*
Y33247D01*
X36547Y33300D01*
X36280Y32767D02*
Y32873D01*
Y32820D01*
X36547D01*
X36600Y32873D01*
Y32927D01*
X36547Y32980D01*
X36600Y32447D02*
Y32660D01*
X36387Y32447D01*
X36333D01*
X36280Y32500D01*
Y32607D01*
X36333Y32660D01*
X24750Y31750D02*
Y32070D01*
X24590D01*
X24537Y32017D01*
Y31910D01*
X24590Y31857D01*
X24750D01*
X24217Y31750D02*
X24430D01*
X24217Y31963D01*
Y32017D01*
X24270Y32070D01*
X24377D01*
X24430Y32017D01*
X28700Y34950D02*
X28380D01*
Y34790D01*
X28433Y34737D01*
X28540D01*
X28593Y34790D01*
Y34950D01*
Y34843D02*
X28700Y34737D01*
X28647Y34630D02*
X28700Y34577D01*
Y34470D01*
X28647Y34417D01*
X28433D01*
X28380Y34470D01*
Y34577D01*
X28433Y34630D01*
X28487D01*
X28540Y34577D01*
Y34417D01*
X28433Y34310D02*
X28380Y34257D01*
Y34150D01*
X28433Y34097D01*
X28487D01*
X28540Y34150D01*
X28593Y34097D01*
X28647D01*
X28700Y34150D01*
Y34257D01*
X28647Y34310D01*
X28593D01*
X28540Y34257D01*
X28487Y34310D01*
X28433D01*
X28540Y34257D02*
Y34150D01*
X37550Y35900D02*
Y36220D01*
X37390D01*
X37337Y36167D01*
Y36060D01*
X37390Y36007D01*
X37550D01*
X37443D02*
X37337Y35900D01*
X37230Y36167D02*
X37177Y36220D01*
X37070D01*
X37017Y36167D01*
Y36113D01*
X37070Y36060D01*
X37017Y36007D01*
Y35953D01*
X37070Y35900D01*
X37177D01*
X37230Y35953D01*
Y36007D01*
X37177Y36060D01*
X37230Y36113D01*
Y36167D01*
X37177Y36060D02*
X37070D01*
X36437Y35717D02*
X36490Y35770D01*
X36597D01*
X36650Y35717D01*
Y35503D01*
X36597Y35450D01*
X36490D01*
X36437Y35503D01*
X36330Y35450D02*
X36223D01*
X36277D01*
Y35770D01*
X36330Y35717D01*
X36064Y35503D02*
X36010Y35450D01*
X35904D01*
X35850Y35503D01*
Y35717D01*
X35904Y35770D01*
X36010D01*
X36064Y35717D01*
Y35663D01*
X36010Y35610D01*
X35850D01*
X38650Y35900D02*
Y36220D01*
X38490D01*
X38437Y36167D01*
Y36060D01*
X38490Y36007D01*
X38650D01*
X38543D02*
X38437Y35900D01*
X38117Y36220D02*
X38223Y36167D01*
X38330Y36060D01*
Y35953D01*
X38277Y35900D01*
X38170D01*
X38117Y35953D01*
Y36007D01*
X38170Y36060D01*
X38330D01*
X39030Y33000D02*
X39297D01*
X39350Y32947D01*
Y32840D01*
X39297Y32787D01*
X39030D01*
Y32467D02*
X39083Y32573D01*
X39190Y32680D01*
X39297D01*
X39350Y32627D01*
Y32520D01*
X39297Y32467D01*
X39243D01*
X39190Y32520D01*
Y32680D01*
X40000Y35800D02*
X39680D01*
Y35640D01*
X39733Y35587D01*
X39840D01*
X39893Y35640D01*
Y35800D01*
Y35693D02*
X40000Y35587D01*
X39680Y35480D02*
Y35267D01*
X39733D01*
X39947Y35480D01*
X40000D01*
X42580Y29750D02*
X42900D01*
Y29590D01*
X42847Y29537D01*
X42633D01*
X42580Y29590D01*
Y29750D01*
Y29217D02*
X42633Y29323D01*
X42740Y29430D01*
X42847D01*
X42900Y29377D01*
Y29270D01*
X42847Y29217D01*
X42793D01*
X42740Y29270D01*
Y29430D01*
X35487Y32067D02*
X35540Y32120D01*
X35647D01*
X35700Y32067D01*
Y31853D01*
X35647Y31800D01*
X35540D01*
X35487Y31853D01*
X35167Y31800D02*
X35380D01*
X35167Y32013D01*
Y32067D01*
X35220Y32120D01*
X35327D01*
X35380Y32067D01*
X35060D02*
X35007Y32120D01*
X34900D01*
X34847Y32067D01*
Y31853D01*
X34900Y31800D01*
X35007D01*
X35060Y31853D01*
Y32067D01*
X40587Y32717D02*
X40640Y32770D01*
X40747D01*
X40800Y32717D01*
Y32503D01*
X40747Y32450D01*
X40640D01*
X40587Y32503D01*
X40480Y32450D02*
X40373D01*
X40427D01*
Y32770D01*
X40480Y32717D01*
X40214D02*
X40160Y32770D01*
X40054D01*
X40000Y32717D01*
Y32663D01*
X40054Y32610D01*
X40000Y32557D01*
Y32503D01*
X40054Y32450D01*
X40160D01*
X40214Y32503D01*
Y32557D01*
X40160Y32610D01*
X40214Y32663D01*
Y32717D01*
X40160Y32610D02*
X40054D01*
X40483Y29487D02*
X40430Y29540D01*
Y29647D01*
X40483Y29700D01*
X40697D01*
X40750Y29647D01*
Y29540D01*
X40697Y29487D01*
X40750Y29380D02*
Y29273D01*
Y29327D01*
X40430D01*
X40483Y29380D01*
X40430Y29114D02*
Y28900D01*
X40483D01*
X40697Y29114D01*
X40750D01*
X34300Y36270D02*
Y35950D01*
Y36110D01*
X34087D01*
Y36270D01*
Y35950D01*
X33980D02*
X33873D01*
X33927D01*
Y36270D01*
X33980Y36217D01*
X36580Y32150D02*
X36900D01*
Y31937D01*
X36633Y31830D02*
X36580Y31777D01*
Y31670D01*
X36633Y31617D01*
X36847D01*
X36900Y31670D01*
Y31777D01*
X36847Y31830D01*
X36633D01*
X36530Y29600D02*
X36850D01*
Y29387D01*
Y29280D02*
Y29173D01*
Y29227D01*
X36530D01*
X36583Y29280D01*
X31687Y27270D02*
Y26950D01*
X31847D01*
X31900Y27003D01*
Y27110D01*
X31847Y27163D01*
X31687D01*
X31420Y26950D02*
X31527D01*
X31580Y27003D01*
Y27110D01*
X31527Y27163D01*
X31420D01*
X31367Y27110D01*
Y27057D01*
X31580D01*
X31260Y27163D02*
Y26950D01*
Y27057D01*
X31207Y27110D01*
X31154Y27163D01*
X31100D01*
X30940Y26950D02*
Y27163D01*
X30887D01*
X30834Y27110D01*
Y26950D01*
Y27110D01*
X30780Y27163D01*
X30727Y27110D01*
Y26950D01*
X30620D02*
X30514D01*
X30567D01*
Y27163D01*
X30620D01*
X30301Y27217D02*
Y27163D01*
X30354D01*
X30247D01*
X30301D01*
Y27003D01*
X30247Y26950D01*
X30087Y27163D02*
X29874D01*
X30087Y26950D01*
X29874D01*
X29714Y27163D02*
X29607D01*
X29554Y27110D01*
Y26950D01*
X29714D01*
X29767Y27003D01*
X29714Y27057D01*
X29554D01*
X29128Y27163D02*
Y26950D01*
Y27057D01*
X29074Y27110D01*
X29021Y27163D01*
X28968D01*
X28648Y26950D02*
X28754D01*
X28808Y27003D01*
Y27110D01*
X28754Y27163D01*
X28648D01*
X28594Y27110D01*
Y27057D01*
X28808D01*
X28488Y27163D02*
X28381Y26950D01*
X28275Y27163D01*
X28168Y27217D02*
X28115Y27270D01*
X28008D01*
X27955Y27217D01*
Y27003D01*
X28008Y26950D01*
X28115D01*
X28168Y27003D01*
Y27217D01*
X27848Y26950D02*
Y27003D01*
X27795D01*
Y26950D01*
X27848D01*
X27581D02*
X27475D01*
X27528D01*
Y27270D01*
X27581Y27217D01*
X30200Y27500D02*
Y27713D01*
X30147D01*
X30093Y27660D01*
Y27500D01*
Y27660D01*
X30040Y27713D01*
X29987Y27660D01*
Y27500D01*
X29880D02*
X29773D01*
X29827D01*
Y27713D01*
X29880D01*
X29400D02*
X29560D01*
X29614Y27660D01*
Y27553D01*
X29560Y27500D01*
X29400D01*
X29294Y27713D02*
Y27500D01*
Y27607D01*
X29240Y27660D01*
X29187Y27713D01*
X29134D01*
X28920Y27500D02*
X28814D01*
X28760Y27553D01*
Y27660D01*
X28814Y27713D01*
X28920D01*
X28974Y27660D01*
Y27553D01*
X28920Y27500D01*
X28654D02*
Y27820D01*
X28494D01*
X28441Y27767D01*
Y27660D01*
X28494Y27607D01*
X28654D01*
X28281Y27500D02*
X28174D01*
X28121Y27553D01*
Y27660D01*
X28174Y27713D01*
X28281D01*
X28334Y27660D01*
Y27553D01*
X28281Y27500D01*
X28014Y27713D02*
Y27553D01*
X27961Y27500D01*
X27907Y27553D01*
X27854Y27500D01*
X27801Y27553D01*
Y27713D01*
X27534Y27500D02*
X27641D01*
X27694Y27553D01*
Y27660D01*
X27641Y27713D01*
X27534D01*
X27481Y27660D01*
Y27607D01*
X27694D01*
X27374Y27713D02*
Y27500D01*
Y27607D01*
X27321Y27660D01*
X27268Y27713D01*
X27214D01*
D103*
X31396Y34579D02*
Y36320D01*
X33716Y34572D02*
Y36320D01*
X31396D02*
X33716D01*
M02*
